<svg width="438" height="758" viewBox="0 0 438 758" fill="none" xmlns="http://www.w3.org/2000/svg">
<path d="M419.385 336.923C369.626 195.8 252.206 44 189.35 2.01788L187.35 0C218.41 94.5846 111.827 196.771 44.8741 310.38C-33.1931 448.004 8.23886 556.976 37.7132 594.259C45.1965 604.734 67.9376 632.423 97.481 652.123C115.642 663.702 163.824 687.896 206.325 687.896L218.765 688.933L211.508 733C216.691 717.62 228.301 688.103 233.277 688.933C257.81 687.458 314.378 676.49 351.969 646.283C370.657 631.266 399.723 598.442 422 551C436.223 507.942 449.207 421.5 419.385 336.923Z" fill="white"/>
<g filter="url(#filter0_i_247_45)">
<path d="M196.673 15.0234C196.67 15.0214 196.667 15.0193 196.665 15.0173V15C196.667 15.0078 196.67 15.0156 196.673 15.0234C252.172 59.5272 359.246 199.968 409.599 337.975C444.56 433.873 404.87 532.429 305.611 566.208C308.942 571.247 318.26 578.169 324.248 580.706C316.69 579.722 304.731 573.698 300.4 569.125C289.01 557.388 274.308 549.672 258.466 546.842C220.934 540.145 203.159 557.439 152.684 537.245C140.277 529.909 118.62 548.119 146.368 563.964C159.501 571.455 175.86 569.418 192.495 582.708C169.854 575.476 152.788 580.896 133.909 570.005C113.65 558.302 77.7221 518.69 62.3293 538.677C74.6504 546.841 91.0613 568.659 118.62 589.664C124.901 594.445 160.605 619.317 198.103 629.242C204.385 630.899 210.77 632.297 217.172 633.367C294.153 646.295 370.116 613.276 414.033 552.209C394.496 595.5 364.53 620.884 346.507 635.367C310.251 664.5 255.693 675.078 232.032 676.5C227.233 675.7 217.205 706.667 212.207 721.5L218.035 676.5L206.037 675.5C165.046 675.5 118.576 652.167 101.06 641C72.5667 622 50.6336 595.296 43.4162 585.194C-21.9685 493.076 28.127 364.435 132.58 328.896C129.25 323.856 119.931 316.935 113.943 314.398C121.502 315.381 133.461 321.405 137.792 325.962C149.181 337.699 163.884 345.414 179.725 348.245C217.275 354.942 235.032 337.647 285.507 357.842C297.915 365.177 319.572 346.968 291.806 331.123C278.674 323.632 262.315 325.651 245.679 312.378C268.32 319.61 285.386 314.19 304.265 325.082C324.524 336.784 360.452 376.396 375.845 356.409C363.524 348.245 347.113 326.428 319.554 305.422C313.273 300.641 277.569 275.786 240.071 265.844C233.79 264.187 227.405 262.789 221.02 261.719C158.569 251.242 96.7905 270.988 52.2515 311.412C116.82 201.853 226.603 106.237 196.673 15.0234Z" fill="url(#paint0_linear_247_45)"/>
</g>
<g filter="url(#filter1_d_247_45)">
<path d="M220.54 638C206.693 635.5 202.078 634.5 196.54 632L207.463 745.5L220.54 638Z" fill="white"/>
</g>
<g filter="url(#filter2_d_247_45)">
<path d="M211.877 477.921C148.292 477.921 115.777 407.307 107.468 372C103.5 373 105 372.5 100.5 373.5C89.4712 445.68 142.883 499.78 169.608 513.97C179.145 516.819 183.88 533.918 184.963 540C189.296 540.667 199.46 541.9 205.459 541.5C212.957 541 235.952 537.5 238.452 540C245.677 511.517 263.539 523.761 297.499 474.806C319.34 443.321 325.508 398.617 323.001 376.5C322.389 371.106 323.001 373 316.647 372C308.217 407.307 275.461 477.921 211.877 477.921Z" fill="white"/>
<path d="M107.955 371.885L107.838 371.391L107.346 371.515C105.368 372.014 104.762 372.136 104.094 372.258C104.022 372.271 103.95 372.284 103.876 372.298C103.234 372.414 102.416 372.562 100.392 373.012L100.058 373.086L100.006 373.424C94.4692 409.66 105.11 441.35 120.473 465.748C135.83 490.135 155.926 507.272 169.373 514.412L169.417 514.435L169.464 514.449C174.01 515.807 177.498 520.607 180.002 525.984C182.491 531.326 183.935 537.077 184.471 540.088L184.534 540.44L184.887 540.494C189.219 541.161 199.433 542.403 205.492 541.999C207.414 541.871 210.375 541.543 213.742 541.171C216.935 540.818 220.492 540.425 223.874 540.123C227.37 539.811 230.694 539.594 233.294 539.609C234.595 539.617 235.698 539.683 236.544 539.82C236.967 539.888 237.313 539.972 237.581 540.069C237.855 540.169 238.015 540.27 238.098 540.354L238.72 540.976L238.936 540.123C240.727 533.064 243.166 528.565 246.324 525.014C249.367 521.591 253.093 519.028 257.648 515.895C257.842 515.762 258.037 515.627 258.234 515.492C267.88 508.851 280.886 499.633 297.91 475.091C308.878 459.28 315.901 440.167 319.869 422.248C323.836 404.332 324.759 387.57 323.497 376.444C323.462 376.128 323.43 375.835 323.4 375.562C323.306 374.693 323.235 374.035 323.132 373.557C323.063 373.236 322.972 372.947 322.821 372.705C322.662 372.449 322.451 372.268 322.184 372.147C321.933 372.033 321.647 371.979 321.345 371.944C321.062 371.912 320.726 371.893 320.345 371.872L320.262 371.867C319.422 371.82 318.288 371.752 316.725 371.506L316.268 371.434L316.161 371.884C311.958 389.484 301.688 415.895 284.55 437.894C267.416 459.889 243.461 477.421 211.877 477.421C180.293 477.421 156.399 459.889 139.339 437.894C122.277 415.896 112.097 389.485 107.955 371.885Z" stroke="#A63B3B"/>
</g>
<g filter="url(#filter3_d_247_45)">
<ellipse cx="211.037" cy="425.931" rx="37.2332" ry="37.2414" fill="white"/>
</g>
<defs>
<filter id="filter0_i_247_45" x="14.0796" y="15" width="413" height="717.5" filterUnits="userSpaceOnUse" color-interpolation-filters="sRGB">
<feFlood flood-opacity="0" result="BackgroundImageFix"/>
<feBlend mode="normal" in="SourceGraphic" in2="BackgroundImageFix" result="shape"/>
<feColorMatrix in="SourceAlpha" type="matrix" values="0 0 0 0 0 0 0 0 0 0 0 0 0 0 0 0 0 0 127 0" result="hardAlpha"/>
<feOffset dx="5" dy="11"/>
<feGaussianBlur stdDeviation="5.5"/>
<feComposite in2="hardAlpha" operator="arithmetic" k2="-1" k3="1"/>
<feColorMatrix type="matrix" values="0 0 0 0 0.262745 0 0 0 0 0.0588235 0 0 0 0 0.0588235 0 0 0 0.29 0"/>
<feBlend mode="normal" in2="shape" result="effect1_innerShadow_247_45"/>
</filter>
<filter id="filter1_d_247_45" x="192.54" y="628" width="40" height="129.5" filterUnits="userSpaceOnUse" color-interpolation-filters="sRGB">
<feFlood flood-opacity="0" result="BackgroundImageFix"/>
<feColorMatrix in="SourceAlpha" type="matrix" values="0 0 0 0 0 0 0 0 0 0 0 0 0 0 0 0 0 0 127 0" result="hardAlpha"/>
<feOffset dx="4" dy="4"/>
<feGaussianBlur stdDeviation="4"/>
<feComposite in2="hardAlpha" operator="out"/>
<feColorMatrix type="matrix" values="0 0 0 0 0.14902 0 0 0 0 0.196078 0 0 0 0 0.219608 0 0 0 0.5 0"/>
<feBlend mode="normal" in2="BackgroundImageFix" result="effect1_dropShadow_247_45"/>
<feBlend mode="normal" in="SourceGraphic" in2="effect1_dropShadow_247_45" result="shape"/>
</filter>
<filter id="filter2_d_247_45" x="94.0215" y="366.782" width="242.503" height="187.796" filterUnits="userSpaceOnUse" color-interpolation-filters="sRGB">
<feFlood flood-opacity="0" result="BackgroundImageFix"/>
<feColorMatrix in="SourceAlpha" type="matrix" values="0 0 0 0 0 0 0 0 0 0 0 0 0 0 0 0 0 0 127 0" result="hardAlpha"/>
<feOffset dx="4" dy="4"/>
<feGaussianBlur stdDeviation="4"/>
<feComposite in2="hardAlpha" operator="out"/>
<feColorMatrix type="matrix" values="0 0 0 0 0.14902 0 0 0 0 0.196078 0 0 0 0 0.219608 0 0 0 0.5 0"/>
<feBlend mode="normal" in2="BackgroundImageFix" result="effect1_dropShadow_247_45"/>
<feBlend mode="normal" in="SourceGraphic" in2="effect1_dropShadow_247_45" result="shape"/>
</filter>
<filter id="filter3_d_247_45" x="169.804" y="384.69" width="90.4663" height="90.4827" filterUnits="userSpaceOnUse" color-interpolation-filters="sRGB">
<feFlood flood-opacity="0" result="BackgroundImageFix"/>
<feColorMatrix in="SourceAlpha" type="matrix" values="0 0 0 0 0 0 0 0 0 0 0 0 0 0 0 0 0 0 127 0" result="hardAlpha"/>
<feOffset dx="4" dy="4"/>
<feGaussianBlur stdDeviation="4"/>
<feComposite in2="hardAlpha" operator="out"/>
<feColorMatrix type="matrix" values="0 0 0 0 0.14902 0 0 0 0 0.196078 0 0 0 0 0.219608 0 0 0 0.5 0"/>
<feBlend mode="normal" in2="BackgroundImageFix" result="effect1_dropShadow_247_45"/>
<feBlend mode="normal" in="SourceGraphic" in2="effect1_dropShadow_247_45" result="shape"/>
</filter>
<linearGradient id="paint0_linear_247_45" x1="218.087" y1="373.002" x2="218.087" y2="983.955" gradientUnits="userSpaceOnUse">
<stop stop-color="#FF0000"/>
<stop offset="1" stop-color="#660066"/>
</linearGradient>
</defs>
</svg>
