<svg width="419" height="863" viewBox="0 0 419 863" fill="none" xmlns="http://www.w3.org/2000/svg">
<path opacity="0.3" d="M125.405 752C125.405 752 119.905 752.1 118.005 755.8C116.105 759.5 106.905 757.6 105.505 760.7C104.105 763.9 101.105 761.8 99.4048 764C97.7048 766.2 93.5048 763 92.7048 763.1C91.9048 763.3 85.6048 765.8 85.9048 762.5C86.3048 759.3 78.7048 754.9 78.7048 754.9C75.8048 752.2 68.9048 753 67.2048 755.3C65.4048 757.5 60.0048 760.7 56.8048 761.3C53.6048 761.9 54.3048 765.9 55.5048 767.8C56.6048 769.7 59.4048 768.3 59.6048 770.6C59.7048 773 60.0048 772.2 62.6048 772.7C65.1048 773.2 67.7048 767.6 68.8048 769C70.0048 770.4 69.5048 769.8 67.5048 773C65.5048 776.3 64.9048 775.8 59.7048 774.4C54.4048 773.1 52.9048 771.9 51.5048 773.7C50.1048 775.6 47.4048 775.4 44.8048 775.9C42.3048 776.4 45.0048 779.3 44.0048 780.9C43.0048 782.5 40.2048 780.9 39.7048 780.3C39.2048 779.7 37.2048 779.3 36.7048 781.7C36.3048 784 34.8048 783 35.2048 786.4C35.6048 789.9 33.0048 789.8 32.1048 791.2C31.2048 792.7 30.6048 794 28.3048 793.7C26.0048 793.5 21.8048 796 21.8048 798.4C21.7048 800.7 21.2048 801.9 19.5048 803.7C17.8048 805.6 20.8048 810.6 22.5048 813.6C24.2048 816.6 27.3048 818.5 31.6048 818.1C35.9048 817.7 38.6048 821 39.8048 822.8C41.0048 824.6 36.0048 825.6 38.1048 828.9C39.8048 830.7 38.6048 833.2 38.7048 836C38.8048 838.7 36.9048 838.2 35.3048 840.6C33.6048 842.5 34.6048 842.6 35.2048 846.2C35.7048 849.8 34.0048 850.4 35.4048 855C36.1048 857.5 34.2048 859.1 35.3048 860.5C36.4048 861.9 39.3048 862 39.3048 862C39.3048 862 43.4048 863.4 46.7048 860.7C50.0048 858.1 49.2048 856.5 51.9048 856.3C54.7048 856.2 53.0048 852.8 55.5048 852C57.9048 851.2 61.3048 851.6 62.9048 847.1C64.6048 842.5 62.3048 841.4 65.6048 839.4C68.9048 837.4 72.5048 840.3 75.2048 835.6C77.9048 830.8 80.4048 831.9 78.2048 829.8C76.0048 827.8 77.7048 827.8 82.4048 826.8C87.1048 825.9 85.8048 820.8 91.7048 821.7C97.5048 822.5 95.7048 824.3 97.1048 830.9C98.6048 837.6 94.6048 841.2 99.1048 841C103.705 840.7 98.9048 837.1 105.805 833.8C112.605 830.5 121.705 837.6 123.705 842C141.005 813.5 140.305 780.9 125.405 752Z" fill="#95B7AF" fill-opacity="0.91"/>
<path opacity="0.1" d="M358.405 111C358.405 111 352.905 111.1 351.005 114.8C349.105 118.5 339.905 116.6 338.505 119.7C337.105 122.9 334.105 120.8 332.405 123C330.705 125.2 326.505 122 325.705 122.1C324.905 122.3 318.605 124.8 318.905 121.5C319.305 118.3 311.705 113.9 311.705 113.9C308.805 111.2 301.905 112 300.205 114.3C298.405 116.5 293.005 119.7 289.805 120.3C286.605 120.9 287.305 124.9 288.505 126.8C289.605 128.7 292.405 127.3 292.605 129.6C292.705 132 293.005 131.2 295.605 131.7C298.105 132.2 300.705 126.6 301.805 128C303.005 129.4 302.505 128.8 300.505 132C298.505 135.3 297.905 134.8 292.705 133.4C287.405 132.1 285.905 130.9 284.505 132.7C283.105 134.6 280.405 134.4 277.805 134.9C275.305 135.4 278.005 138.3 277.005 139.9C276.005 141.5 273.205 139.9 272.705 139.3C272.205 138.7 270.205 138.3 269.705 140.7C269.305 143 267.805 142 268.205 145.4C268.605 148.9 266.005 148.8 265.105 150.2C264.205 151.7 263.605 153 261.305 152.7C259.005 152.5 254.805 155 254.805 157.4C254.705 159.7 254.205 160.9 252.505 162.7C250.805 164.6 253.805 169.6 255.505 172.6C257.205 175.6 260.305 177.5 264.605 177.1C268.905 176.7 271.605 180 272.805 181.8C274.005 183.6 269.005 184.6 271.105 187.9C272.805 189.7 271.605 192.2 271.705 195C271.805 197.7 269.905 197.2 268.305 199.6C266.605 201.5 267.605 201.6 268.205 205.2C268.705 208.8 267.005 209.4 268.405 214C269.105 216.5 267.205 218.1 268.305 219.5C269.405 220.9 272.305 221 272.305 221C272.305 221 276.405 222.4 279.705 219.7C283.005 217.1 282.205 215.5 284.905 215.3C287.705 215.2 286.005 211.8 288.505 211C290.905 210.2 294.305 210.6 295.905 206.1C297.605 201.5 295.305 200.4 298.605 198.4C301.905 196.4 305.505 199.3 308.205 194.6C310.905 189.8 313.405 190.9 311.205 188.8C309.005 186.8 310.705 186.8 315.405 185.8C320.105 184.9 318.805 179.8 324.705 180.7C330.505 181.5 328.705 183.3 330.105 189.9C331.605 196.6 327.605 200.2 332.105 200C336.705 199.7 331.905 196.1 338.805 192.8C345.605 189.5 354.705 196.6 356.705 201C374.005 172.5 373.305 139.9 358.405 111Z" fill="#95B7AF"/>
<path opacity="0.1" d="M263.5 555C263.5 555 258.4 563.7 265.3 567.2C272.1 570.6 268.3 573.6 272.2 576.5C276.1 579.4 277 578.6 280.5 574.4C284.1 570.3 289.2 563.2 296.2 561.3C303.1 559.4 298.3 547 312.9 550.4C327.5 553.8 334.9 541.9 346.4 544C358 546 374.9 552.2 386.4 536.8C397.9 521.3 393.1 516.3 406.7 505.3C420.2 494.2 419 480.6 428.6 469.3C447.1 449.6 463.4 452.2 463.4 445.1C463.5 438 458.1 438.6 448.3 432.5C438.4 426.5 440.9 422.2 448.2 421.3C455.4 420.4 454.6 409 444.3 399.8C434 390.6 422.8 380 413.9 386.4C405 392.8 393.5 378.3 391.7 390.4C389.9 402.4 372.6 394.8 374.4 384.9C376.1 374.9 317.6 377.7 321.2 386.1C324.9 394.6 330.4 402.6 317.1 399.4C303.9 396.2 283.1 393.3 288 405.5C292.9 417.8 273.9 413.1 283.7 425.4C293.5 437.7 310.7 424.4 303.4 451.9C296.1 479.4 277.5 491.9 280.9 500.7C284.4 509.5 269.9 506.4 267.7 522.4C265.5 538.5 267.7 541.9 263.5 555Z" fill="#95B7AF"/>
<path opacity="0.1" d="M73.1189 0C83.1189 12.9 93.8189 21.2 101.319 21C108.719 20.9 121.219 39.5 119.319 45C117.419 50.6 126.519 60.7 132.219 57.6C137.819 54.5 145.919 67.7 152.419 66.6C161.719 65 161.019 55.3 163.919 54.5C166.719 53.6 175.519 58.7 167.519 68.5C162.519 74.5 163.419 81.3 167.119 83.8C170.819 86.3 181.519 77.9 178.419 72.3C175.319 66.7 176.719 62.3 187.019 55.7C197.219 49 201.719 55.7 209.919 62.8C218.119 70 210.919 69.8 210.019 78.3C209.119 86.8 218.119 91.4 215.119 94.1C212.019 96.7 210.419 100.3 211.919 106.4C213.319 112.6 218.419 115.4 210.119 118.5C201.819 121.6 203.719 118.1 203.719 118.1C203.719 118.1 204.719 109.2 199.419 112.3C194.219 115.3 203.319 123.3 197.519 127.6C191.719 131.8 185.219 125.6 184.219 118C183.219 110.4 193.219 102.6 196.019 99.4C198.919 96.1 200.719 87.1 192.019 85.8C183.419 84.5 184.219 86.9 178.219 94.2C172.119 101.5 167.919 89.6 159.519 94.3C151.119 99 124.819 102.9 122.519 109.2C120.119 115.5 129.019 130.1 132.719 134.9C136.419 139.7 137.919 139.3 134.119 144.2C130.419 149 130.619 153.2 133.319 154.2C136.019 155.2 138.419 152.4 141.219 145.6C144.119 138.7 146.819 143.2 153.319 140.1C159.719 137 155.219 129.2 159.619 127.2C163.919 125.1 162.219 118.5 167.319 115.3C172.519 112.1 185.519 127.8 181.219 130.7C176.919 133.6 175.619 140.9 179.219 142.2C182.819 143.6 189.819 136.9 190.519 137.4C191.219 137.9 190.019 145.6 187.119 153.1C184.119 160.6 193.519 169.9 192.219 174.6C191.019 179.2 176.819 179.5 171.519 176C166.219 172.5 161.719 174 163.519 177C165.219 180 160.619 183.3 162.119 188C163.619 192.6 170.919 188.3 170.019 192.3C169.119 196.4 162.819 194.2 153.619 194.1C144.419 194.1 151.619 189.2 144.019 189.4C136.519 189.6 142.719 197.2 136.219 196.1C129.719 195 123.319 198.6 118.719 202.3C114.119 205.9 118.319 207.9 103.519 211.6C88.6189 215.4 92.4189 226.2 88.4189 232.1C84.4189 238 84.9189 223.8 85.7189 220.5C86.4189 217.2 82.1189 218.6 81.0189 216.1C79.9189 213.6 75.0189 211.8 71.3189 210.9C67.7189 210 68.6189 214.9 64.8189 211.6C60.9189 208.4 54.0189 208.1 49.2189 209.2C44.3189 210.3 46.8189 213 42.3189 218.8C37.8189 224.5 40.4189 238.3 43.0189 239.2C45.6189 240.1 45.2189 238.9 49.1189 240.8C53.0189 242.7 53.4189 238.4 55.9189 236C58.4189 233.7 65.1189 235.6 65.1189 235.6C65.1189 235.6 65.1189 235.6 65.7189 238.9C66.3189 242.3 57.2189 247.7 55.3189 251.5C53.4189 255.3 66.5189 254.1 67.6189 258.1C68.6189 262.2 70.1189 273.4 74.1189 274.9C78.2189 276.4 81.0189 276.7 85.0189 277.7C89.0189 278.7 86.5189 274.3 90.7189 273.7C94.9189 273.1 93.6189 276.4 92.7189 279.8C91.8189 283.3 88.5189 284 91.1189 284.9C93.7189 285.9 94.0189 282.1 94.0189 282.1C94.0189 282.1 94.9189 281 95.8189 280.3C96.7189 279.6 100.419 279.7 101.619 283.8C102.819 288 106.219 287.2 107.919 286.5C110.019 285.8 116.019 288.9 115.519 291.5C115.119 293.9 122.519 302 125.019 306.4C127.519 310.8 138.019 310 138.119 322.1C138.119 334.3 158.219 344.8 166.919 353.9C175.619 363 164.719 369 156.719 374.1C148.819 379.3 148.719 391.1 138.719 397.5C128.819 403.9 122.219 398.8 114.619 408.3C107.119 417.8 94.7189 421.4 88.9189 426.8C83.0189 432.2 79.6189 431.4 72.4189 432.8C65.3189 434.2 63.7189 445.2 60.3189 446.3C56.8189 447.4 54.0189 449.7 56.5189 453.8C58.9189 458 53.4189 459.4 47.5189 466.4C41.7189 473.5 54.0189 484.9 54.0189 484.9L43.9189 485.8C43.9189 485.8 31.7189 478.9 32.5189 470.9C33.3189 462.8 31.2189 459.7 32.7189 455.2C34.2189 450.8 36.5189 452.8 36.6189 448.6C36.7189 444.5 45.8189 434.6 43.9189 430.8C42.1189 426.9 38.5189 431.9 42.2189 424.4C46.0189 417 46.8189 412.9 50.6189 406.3C54.5189 399.6 55.5189 394.3 60.8189 380.8C66.1189 367.4 70.3189 362 64.7189 355.1C59.1189 348.1 53.6189 345.1 54.3189 332.1C55.0189 319.2 49.0189 320.8 50.7189 314.1C52.4189 307.3 60.0189 298.6 68.1189 295.8C76.1189 292.9 70.7189 282 66.0189 282.5C61.3189 283 57.9189 277.5 56.4189 270.5C54.9189 263.5 57.1189 262.8 51.2189 258.6C45.4189 254.3 45.8189 249.8 40.2189 246C34.6189 242.2 32.5189 245.1 22.2189 233.3C11.9189 221.4 19.9189 219 16.5189 209.7C13.2189 200.5 14.3189 182.6 11.4189 185.1C8.5189 187.6 3.0189 191.7 4.4189 180.3C5.8189 168.9 0.318897 171.6 0.0188973 164.3C-0.281103 157 3.0189 141.8 7.9189 135C12.8189 128.2 22.8189 121.4 24.5189 108.4C26.1189 95.4 23.3189 88.1 26.1189 76.5C28.9189 64.8 29.1189 53.7 25.0189 48.3C23.0189 45.6 21.7189 42.5 19.6189 40.4C35.2189 22.2 53.0189 8.6 73.1189 0Z" fill="#95B7AF"/>
<path opacity="0.1" d="M314.856 599.2C310.856 598.2 308.056 597.9 303.956 596.4L295.856 604C300.556 603.5 305.956 614.4 297.956 617.3C289.856 620.1 282.256 628.8 280.556 635.6C278.856 642.3 284.856 640.7 284.156 653.6C283.456 666.6 288.956 669.6 294.556 676.6C300.156 683.5 295.956 688.9 290.656 702.3C285.356 715.8 284.356 721.1 280.456 727.8C276.656 734.4 275.856 738.5 272.056 745.9C268.356 753.4 271.956 748.4 273.756 752.3C275.656 756.1 266.556 766 266.456 770.1C266.356 774.3 264.056 772.3 262.556 776.7C261.056 781.2 263.156 784.3 262.356 792.4C261.556 800.4 273.756 807.3 273.756 807.3L283.856 806.4C283.856 806.4 271.556 795 277.356 787.9C283.256 780.9 288.756 779.5 286.356 775.3C283.856 771.2 286.656 768.9 290.156 767.8C293.556 766.7 295.156 755.7 302.256 754.3C309.456 752.9 312.856 753.7 318.756 748.3C324.556 742.9 336.956 739.3 344.456 729.8C352.056 720.3 358.656 725.4 368.556 719C378.556 712.6 378.656 700.8 386.556 695.6C394.556 690.5 405.456 684.5 396.756 675.4C388.056 666.3 367.956 655.8 367.956 643.6C367.856 631.5 357.356 632.3 354.856 627.9C352.356 623.5 344.956 615.4 345.356 613C345.856 610.4 339.856 607.3 337.756 608C336.056 608.7 332.656 609.5 331.456 605.3C330.256 601.2 326.556 601.1 325.656 601.8C324.756 602.5 323.856 603.6 323.856 603.6C323.856 603.6 323.556 607.4 320.956 606.4C318.356 605.5 321.656 604.8 322.556 601.3C323.456 597.9 324.756 594.6 320.556 595.2C316.356 595.8 318.856 600.2 314.856 599.2Z" fill="#95B7AF"/>
<path opacity="0.1" d="M20.677 665.325C20.077 667.025 13.277 686.025 32.177 685.525C50.977 685.125 58.677 665.225 82.277 643.025C105.877 620.725 116.677 582.825 101.377 594.025C86.077 605.225 72.577 614.525 55.877 611.625C39.177 608.825 45.477 634.225 35.277 642.125C25.177 650.125 20.677 665.325 20.677 665.325Z" fill="#95B7AF"/>
</svg>
