<svg width="378" height="356" viewBox="0 0 378 356" fill="none" xmlns="http://www.w3.org/2000/svg">
<g filter="url(#filter0_d_0_1)">
<ellipse cx="189" cy="324" rx="185" ry="24" fill="white"/>
</g>
<path d="M254.739 285.681H72.9305C65.9631 285.681 60.3134 279.448 60.3134 271.757V62.5258C60.3134 54.8367 65.9615 48.6018 72.9305 48.6018H218.243C222.05 48.6018 225.656 50.5009 228.051 53.7666L264.55 103.542C266.367 106.02 267.358 109.112 267.358 112.301V271.759C267.357 279.446 261.709 285.681 254.739 285.681Z" fill="#FFABAB"/>
<path d="M328.943 216.82C328.943 216.82 345.941 292.002 345.536 298.031C345.131 304.061 333.395 314.11 334.406 315.45C335.418 316.789 347.357 312.1 350.19 309.197V313.886H352.686C352.686 313.886 354.778 306.517 352.686 298.478C352.686 298.478 353.023 235.355 344.322 217.787L328.943 216.82Z" fill="#F86C6C"/>
<path d="M342.779 304.166C339.255 309.284 333.697 314.512 334.408 315.451C335.42 316.791 347.359 312.102 350.191 309.199V313.888H352.688C352.688 313.888 354.512 307.45 353.044 300.045L348.213 303.069L342.779 304.166Z" fill="#313F4A"/>
<path d="M280.932 216.82C280.932 216.82 277.741 292.002 277.336 298.031C276.932 304.061 265.195 314.11 266.207 315.45C267.219 316.789 279.158 312.1 281.991 309.197V313.886H284.487C284.487 313.886 286.578 306.517 284.487 298.478C284.487 298.478 298.226 235.15 296.311 217.787L280.932 216.82Z" fill="#F86C6C"/>
<path d="M274.578 304.166C271.054 309.285 265.496 314.512 266.207 315.452C267.219 316.791 279.158 312.102 281.99 309.199V313.888H284.487C284.487 313.888 286.311 307.45 284.843 300.045L280.012 303.069L274.578 304.166Z" fill="#313F4A"/>
<path d="M285.371 165.162L277.142 220.097C277.142 220.097 283.347 221.289 305.606 220.097C327.865 218.905 346.886 221.884 352.686 218.757L346.345 162.929L285.371 165.162Z" fill="#638296"/>
<path d="M346.345 162.929L285.369 165.162L283.375 178.475C286.554 180.521 292.307 182.464 302.637 182.134C318.515 181.623 337.788 193.803 350.279 197.566L346.345 162.929Z" fill="#313F4A"/>
<path d="M285.91 11.7463C285.91 11.7463 290.091 6.0884 298.523 7.8749C306.954 9.66141 308.034 15.4675 309.855 19.4121C311.676 23.3567 315.791 24.25 316.533 27.2281C317.274 30.2062 307.225 34.2258 307.225 34.2258C307.225 34.2258 302.436 39.5853 296.905 40.7769C291.373 41.9685 287.596 41.3718 285.168 42.4884C282.74 43.6049 283.415 39.9569 283.279 37.4272C283.145 34.8957 284.088 26.4849 282.065 21.7953C280.041 17.1058 280.716 12.1178 285.91 11.7463Z" fill="#313831"/>
<path d="M286.989 16.8825C286.989 16.8825 289.081 19.2639 294.545 18.8173C294.545 18.8173 296.973 23.1353 297.985 22.9119C298.996 22.6886 298.457 19.7856 300.481 21.0504C302.504 22.3153 302.639 24.4001 302.1 26.7083C302.1 26.7083 308.98 32.961 315.792 36.534L313.363 47.178H300.749L299.603 41.7435L301.897 40.8502L298.12 36.2357C298.12 36.2357 295.49 39.957 293.062 38.9154C290.633 37.8739 288.947 34.5975 287.732 34.0026C286.518 33.4076 288.474 31.4711 288.34 30.058C288.204 28.643 284.898 21.3488 286.989 16.8825Z" fill="#F86C6C"/>
<path d="M298.791 45.0198H315.79L306.786 86.4435L298.791 45.0198Z" fill="#638296"/>
<path d="M307.289 78.2184C307.289 78.2184 311.521 46.5295 314.605 36.7823C314.893 35.8712 315.761 35.3674 316.598 35.6443C319.573 36.6287 326.68 39.1655 332.451 42.6956C337.712 45.9131 339.87 51.8675 342.839 59.3119C345.806 66.7562 352.282 78.4417 353.766 86.4453C355.251 94.447 349.18 110.227 349.18 110.227L346.752 109.186C346.752 109.186 346.549 119.16 349.382 137.025C352.215 154.89 351.608 174.207 351.608 174.207C351.608 174.207 332.385 187.995 308.507 169.321C308.507 169.321 295.961 180.794 278.963 168.288L286.298 128.092V94.8186L275.928 91.0223C275.928 91.0223 280.035 69.8076 281.32 61.0984C282.576 52.5893 280.53 46.4348 298.792 40.9056C299.501 40.6912 300.238 41.186 300.39 41.9792L307.289 78.2184Z" fill="white"/>
<path d="M287.461 58.1203L288.607 69.1377H284.762C284.762 69.1377 285.842 68.0961 285.639 64.8947C285.437 61.6933 287.461 58.1203 287.461 58.1203Z" fill="#BDBDBD"/>
<path d="M306.786 86.4435C306.786 86.4435 306.075 96.857 307.291 107.338C308.507 117.82 305.462 125.859 306.58 135.015C307.697 144.171 305.674 158.965 308.507 169.321" stroke="#BDBDBD" stroke-width="0.4816" stroke-miterlimit="10"/>
<path d="M301.437 113.018H273.513L261.964 67.6852H289.889L301.437 113.018Z" fill="#F59D00"/>
<path d="M286.298 123.403H296.668" stroke="#BDBDBD" stroke-width="0.4816" stroke-miterlimit="10"/>
<path d="M296.668 125.97C296.668 125.97 294.816 141.059 284.258 139.265" stroke="#BDBDBD" stroke-width="0.4816" stroke-miterlimit="10"/>
<path d="M325.2 122.173H344.93C344.93 122.173 348.573 142.829 337.139 142.829C325.705 142.829 324.491 126.863 324.491 126.863" stroke="#BDBDBD" stroke-width="0.4816" stroke-miterlimit="10"/>
<path d="M346.75 109.184L334.609 103.749L336.835 97.125C336.835 97.125 334.811 94.8919 335.891 91.3939C335.891 91.3939 333.328 89.3841 333.733 87.226C333.733 87.226 327.73 76.432 326.178 70.7009C324.627 64.9698 323.884 56.7072 325.503 52.9841C325.503 52.9841 322.328 59.2351 322.94 66.7545C323.413 72.5606 326.785 86.406 326.246 96.8267C325.707 107.247 327.19 122.174 327.19 122.174H347.469C347.469 122.174 346.481 112.907 346.75 109.184Z" fill="#BDBDBD"/>
<path d="M336.708 104.689L330.361 122.173H340.479C340.479 122.173 339.821 118.879 339.972 116.814C340.124 114.749 344.029 107.965 344.029 107.965L336.708 104.689Z" fill="#F86C6C"/>
<path d="M302.098 26.7083C302.098 26.7083 303.042 29.1647 299.399 34.5242" stroke="#A63B3B" stroke-width="0.4816" stroke-miterlimit="10"/>
<path d="M316.572 37.7614C316.572 37.7614 321.053 42.0043 320.041 46.6939C319.029 51.3834 313.232 56.7894 313.232 56.7894C313.232 56.7894 317.41 55.7389 318.22 59.9819C319.029 64.2248 308.115 80.3337 308.115 80.3337" stroke="#BDBDBD" stroke-width="0.4816" stroke-miterlimit="10"/>
<path d="M298.79 42.2275C298.79 42.2275 289.782 48.332 301.319 58.1202C301.319 58.1202 289.479 58.7026 306.328 80.3336" stroke="#BDBDBD" stroke-width="0.4816" stroke-miterlimit="10"/>
<path d="M266.011 89.1232C266.011 89.1232 270.262 83.0634 270.971 83.6208C271.68 84.1782 268.541 89.1232 268.541 89.1232C268.541 89.1232 273.195 84.8499 273.5 85.7021C273.804 86.5543 269.048 92.1371 269.048 92.1371C269.048 92.1371 272.792 88.23 273.095 89.3466C273.398 90.4631 269.25 95.1527 269.25 95.1527C269.25 95.1527 272.286 92.3604 272.488 93.4769C272.69 94.5935 269.615 98.1987 268.441 97.7199C267.759 97.4412 267.327 96.8266 267.327 96.8266C267.327 96.8266 263.988 93.9254 266.011 89.1232Z" fill="#F86C6C"/>
<path d="M275.371 186.391H190.938V175.745H275.371C278.036 175.745 280.195 178.128 280.195 181.069C280.195 184.008 278.036 186.391 275.371 186.391Z" fill="#D5E2EB"/>
<path d="M213.671 253.626H139.403C134.329 253.626 129.944 249.717 128.877 244.243L100.986 101.134C100.243 97.3268 102.874 93.7323 106.403 93.7323H176.231C179.893 93.7323 183.059 96.555 183.828 100.505L213.671 253.626Z" fill="#F8F8F8"/>
<path d="M136.748 234.521L110.053 97.5534C109.619 95.3256 107.834 93.7339 105.768 93.7339C102.566 93.7339 100.18 96.9942 100.853 100.449L128.879 244.243C129.945 249.717 134.331 253.626 139.404 253.626H263.866C267.661 253.626 270.735 250.231 270.735 246.046C270.735 241.858 267.659 238.465 263.866 238.465H141.172C139.038 238.464 137.196 236.82 136.748 234.521Z" fill="#F8F8F8"/>
<path d="M190.817 238.464H141.172C139.04 238.464 137.196 236.82 136.748 234.521L110.102 97.8035C109.665 95.5632 107.606 93.6356 105.532 93.7392C102.45 93.8946 100.196 97.08 100.854 100.449L128.879 244.243C129.946 249.717 134.331 253.626 139.404 253.626H190.817C194.611 253.626 197.685 250.231 197.685 246.046C197.685 241.858 194.61 238.464 190.817 238.464Z" fill="#97ADBA"/>
<path d="M189.591 263.898H161.059V318.833H189.591V263.898Z" fill="#4F6578"/>
<path d="M169.359 318.833H161.059V263.898H169.359L179.239 268.711L169.359 283.178V318.833Z" fill="#313F4A"/>
<path d="M175.326 315.559C161.093 315.559 148.439 320.168 140.353 327.319H210.299C202.212 320.168 189.559 315.559 175.326 315.559Z" fill="#313F4A"/>
<path d="M244.877 304.34C244.877 304.34 243.763 310.482 241.64 313.608C239.516 316.734 237.188 319.637 237.895 321.76C238.603 323.882 247.001 326.003 249.734 327.008C252.466 328.014 262.786 330.581 263.596 328.238C264.405 325.894 253.951 318.255 252.55 316.77C251.15 315.285 251.15 308.029 253.174 305.46C255.197 302.891 244.877 304.34 244.877 304.34Z" fill="#AD6E47"/>
<path d="M252.836 317.038C247.866 317.524 243.429 315.711 241.05 314.462C239.113 317.258 237.254 319.83 237.897 321.756C238.606 323.878 247.003 325.999 249.735 327.005C252.468 328.011 262.788 330.578 263.598 328.234C264.365 326.004 254.963 318.996 252.836 317.038Z" fill="#29343B"/>
<path d="M288.147 307.019C288.147 307.019 293.813 316.473 295.702 321.088C297.592 325.703 295.973 327.042 298.94 329.275C301.907 331.509 305.82 327.936 310.947 327.191C316.074 326.446 324.437 320.547 324.437 318.508C324.437 316.472 309.192 318.555 306.293 317.215C303.392 315.875 297.726 305.454 297.726 305.454L288.147 307.019Z" fill="#AD6E47"/>
<path d="M310.947 327.191C316.073 326.446 324.436 320.547 324.436 318.508C324.436 316.598 311.032 318.312 306.971 317.427C303.922 319.853 299.51 321.452 296.17 322.388C297.301 325.974 296.273 327.267 298.94 329.274C301.907 331.509 305.82 327.936 310.947 327.191Z" fill="#29343B"/>
<path d="M199.855 184.976C199.855 184.976 205.521 187.306 213.412 187.306C219.483 187.306 248.972 185.741 266.401 192.115C283.831 198.489 288.485 209.878 287.474 226.18C286.462 242.482 258.537 307.019 258.537 307.019L243.73 305.679C243.73 305.679 245.789 292.281 247.205 280.668C248.622 269.056 255.097 247.395 259.549 237.569C264.001 227.743 263.798 225.733 263.798 225.733C263.798 225.733 213.412 224.84 197.426 222.607C181.44 220.374 167.883 215.014 167.883 215.014C167.883 215.014 180.226 179.727 199.855 184.976Z" fill="#286150"/>
<path d="M270.476 208.24L267.777 211.515" stroke="#1F4D3F" stroke-width="0.4816" stroke-miterlimit="10"/>
<path d="M273.039 214.641C273.039 214.641 268.048 215.833 267.102 216.576" stroke="#1F4D3F" stroke-width="0.4816" stroke-miterlimit="10"/>
<path d="M171.091 238.462H240.123C240.123 238.462 240.73 241.589 244.575 243.599C244.575 243.599 250.645 259.454 257.323 264.813C257.323 264.813 270.274 291.164 286.057 310.592L303.662 305.456C303.662 305.456 285.653 254.987 278.975 238.462C272.297 221.937 263.394 205.189 252.467 200.946C241.539 196.703 200.462 193.543 200.462 193.543L186.982 186.207C186.982 186.207 154.045 197.596 151.29 221.937L154.73 229.592C154.73 229.592 158.113 239.381 171.091 239.381" fill="#38856D"/>
<path d="M163.836 201.616C163.836 201.616 171.418 207.018 172.537 209.928C173.656 212.839 193.196 211.361 207.746 209.928C217.325 208.985 239.448 207.965 242.417 211.602C245.384 215.238 244.845 217.323 248.622 219.407C252.399 221.492 261.843 253.053 270.476 264.815C279.109 276.576 293.379 302.859 293.379 302.859" stroke="#286150" stroke-width="0.4816" stroke-miterlimit="10"/>
<path d="M196.497 191.384L186.98 186.205C186.98 186.205 154.043 197.594 151.288 221.935L154.728 229.59C154.728 229.59 155.397 231.511 157.263 233.648C166.29 231.266 170.382 220.129 174.829 210.175C179.551 199.606 187.106 192.013 196.497 191.384Z" fill="#1F4D3F"/>
<path d="M283.242 307.019C283.242 307.019 291.129 304.588 301.24 298.694" stroke="#286150" stroke-width="0.4816" stroke-miterlimit="10"/>
<path d="M244.445 300.89C244.445 300.89 251.103 302.973 260.654 302.055" stroke="#1F4D3F" stroke-width="0.4816" stroke-miterlimit="10"/>
<path d="M244.844 219.554C244.844 219.554 242.82 221.34 241.336 223.872" stroke="#286150" stroke-width="0.4816" stroke-miterlimit="10"/>
<path d="M247.542 221.714C247.542 221.714 245.519 226.825 244.844 229.592" stroke="#286150" stroke-width="0.4816" stroke-miterlimit="10"/>
<path d="M223.514 157.623C223.514 157.623 256.067 169.766 261.916 169.707C267.764 169.646 275.081 171.465 275.111 176.66H218.427L223.514 157.623Z" fill="#AD6E47"/>
<path d="M177.5 102.047C186.295 104.325 191.288 109.237 194.255 115.789C197.222 122.34 201.001 133.654 203.429 136.482C205.857 139.31 210.579 147.796 210.984 151.369L221.506 154.166V176.658C221.506 176.658 197.224 176.658 191.963 176.658C186.702 176.658 180.901 148.987 179.551 142.584C178.203 136.185 175.99 103.49 177.5 102.047Z" fill="#42525E"/>
<path d="M201.676 158.777C202.485 150.999 194.93 140.503 192.772 136.037C190.614 131.57 191.019 124.276 188.591 117.577C186.163 110.877 182.386 108.789 182.386 108.789L177.869 126.733C178.384 133.729 179.032 140.117 179.553 142.588C180.901 148.989 186.703 176.662 191.964 176.662C194.653 176.662 202.31 176.662 209.156 176.662C207.348 174.304 200.98 165.464 201.676 158.777Z" fill="#29343B"/>
<path d="M210.073 153.05C210.073 153.05 207.745 155.39 207.34 157.623" stroke="#29343B" stroke-width="0.4816" stroke-miterlimit="10"/>
<path d="M217.155 151.37C217.155 151.37 224.642 153.157 225.553 154.273C226.465 155.39 223.934 159.238 223.428 164.237C222.921 169.235 226.16 176.66 223.225 176.66C220.29 176.66 216.143 176.66 214.018 176.66C211.892 176.66 211.894 152.598 217.155 151.37Z" fill="#313F4A"/>
<path d="M263.292 172.026C263.696 173.366 266.227 173.366 267.845 174.036C269.464 174.706 270.881 175.933 267.136 176.66" stroke="#704226" stroke-width="0.4816" stroke-miterlimit="10"/>
<path d="M130.943 154.032C126.993 152.807 124.77 154.713 124.77 154.713" stroke="#29343B" stroke-width="0.4816" stroke-miterlimit="10"/>
<path d="M118.795 109.686C125.591 105.925 139.148 99.56 139.553 99.8958C139.958 100.232 155.526 97.602 158.879 97.6627C163.562 97.7467 174.128 100.961 178.954 102.506C180.552 103.017 181.806 104.36 182.339 106.1C183.911 111.233 186.952 122.495 186.499 131.495C185.892 143.554 195.539 156.903 195.976 165.08C196.414 173.255 204.609 182.845 201.676 185.671C198.741 188.499 173.346 192.013 164.443 205.189C155.539 218.364 154.73 229.592 154.73 229.592C154.73 229.592 150.908 232.335 148.57 229.592C146.231 226.85 146.231 221.937 144.005 217.917C141.779 213.898 134.787 194.184 130.944 185.314C127.193 176.66 115.878 154.713 118.795 109.686Z" fill="#42525E"/>
<path d="M142.723 147.201C139.485 141.394 142.048 136.928 139.485 127.549C137.39 119.885 132.178 115.153 128.327 112.887C127.067 112.146 125.502 112.694 124.801 114.066L118.347 126.672C118.805 160.383 127.702 177.828 130.944 185.314C131.901 187.522 133.052 190.402 134.277 193.542L161.639 171.506C156.54 160.079 145.961 153.007 142.723 147.201Z" fill="#29343B"/>
<path d="M153.38 106.931C159.486 105.053 161.354 100.312 161.914 97.9879C160.758 97.7985 159.721 97.6788 158.877 97.6627C155.525 97.602 139.956 100.232 139.552 99.8958C139.414 99.7815 137.721 100.459 135.306 101.538C138.914 106.129 145.919 109.225 153.38 106.931Z" stroke="#29343B" stroke-width="0.4816" stroke-miterlimit="10"/>
<path d="M186.98 137.616C186.87 137.023 186.766 136.43 186.692 135.838C157.647 136.115 133.416 147.913 121.107 155.274C121.225 155.887 121.344 156.49 121.466 157.084C133.51 149.816 157.804 137.811 186.98 137.616Z" fill="#F86C6C"/>
<path d="M118.89 138.672C118.941 139.308 118.997 139.931 119.054 140.553C132.074 133.889 157.224 123.747 186.392 125.939C186.345 125.339 186.29 124.737 186.226 124.133C157.226 122.032 132.187 131.944 118.89 138.672Z" fill="#F86C6C"/>
<path d="M190.667 149.296C190.433 148.716 190.198 148.133 189.968 147.544C160.799 148.599 136.728 161.184 124.529 168.957C124.712 169.541 124.895 170.109 125.077 170.665C137.112 162.95 161.313 150.173 190.667 149.296Z" fill="#F86C6C"/>
<path d="M194.933 160.139C194.751 159.563 194.545 158.974 194.326 158.372C165.526 159.372 141.621 171.747 128.651 180.097C128.892 180.662 129.123 181.196 129.348 181.707C142.202 173.407 166.118 160.98 194.933 160.139Z" fill="#F86C6C"/>
<path d="M152.099 72.0942C152.099 72.0942 162.926 67.8513 161.205 61.2627C159.484 54.6741 150.683 62.1559 150.683 62.1559C150.683 62.1559 136.518 60.5927 134.19 70.3077C131.862 80.0227 135.607 84.2657 142.589 88.6194L152.099 72.0942Z" fill="#3D2A2A"/>
<path d="M154.425 87.167L157.46 99.7851C157.46 99.7851 153.413 106.261 140.361 101.684L141.575 84.9357C141.575 84.9357 138.54 83.9299 139.147 80.4694C139.754 77.0072 142.284 80.4694 142.284 80.4694C142.284 80.4694 144.207 75.8906 142.791 71.871C142.791 71.871 150.177 70.8652 153.213 68.1854L153.922 70.7544C154.529 72.9875 156.25 76.4498 158.071 76.7838C158.071 76.7838 158.173 86.2755 157.009 86.9455C155.842 87.6136 154.425 87.167 154.425 87.167Z" fill="#AD6E47"/>
<path d="M154.425 87.167C147.039 86.1612 144.308 82.1416 144.308 82.1416C143.549 81.3591 142.841 83.6494 143.853 84.6534C144.865 85.6592 149.266 87.3331 150.985 89.6788C152.706 92.0227 155.316 90.8686 155.316 90.8686L154.425 87.167Z" fill="#704226"/>
<path d="M134.282 159.208C134.282 159.208 134.358 156.281 132.605 154.645C132.605 154.645 134.899 140.8 135.843 131.42C136.787 122.041 127.344 108.494 121.544 108.791C115.743 109.089 109.807 119.808 107.918 129.634C106.029 139.46 105.085 164.917 104.005 171.617C102.925 178.316 97.5299 190.97 126.398 190.97L134.282 159.208Z" fill="#42525E"/>
<path d="M140.699 165.216C140.699 165.216 140.97 161.494 139.62 160.601C138.271 159.708 135.735 157.532 131.823 157.085C127.912 156.639 122.217 161.941 119.52 170.427C116.822 178.913 117.902 188.44 119.925 190.823C121.949 193.205 135.034 191.568 135.034 191.568L140.699 165.216Z" fill="#313F4A"/>
<path d="M136.248 161.643L186.836 181.294C186.836 181.294 189.13 178.466 192.097 177.869C195.065 177.275 196.473 175.915 197.426 176.66C198.378 177.405 192.907 180.848 193.986 181.294C195.066 181.741 200.057 180.401 203.295 179.508C206.532 178.614 201.001 189.557 195.74 189.557C190.478 189.557 141.779 189.557 132.876 189.557C123.972 189.557 125.86 160.451 136.248 161.643Z" fill="#AD6E47"/>
<path d="M157.006 169.705C157.006 169.705 156.959 169.761 156.88 169.875C154.838 172.801 156.294 177.094 159.538 178L160.156 178.171C162.28 178.763 164.49 177.673 165.497 175.526C165.816 174.845 166.196 174.132 166.641 173.446L157.006 169.705Z" fill="#F8F8F8"/>
<path d="M85.3793 318.833C75.9254 318.833 67.5204 322.16 62.1492 327.319H108.61C103.238 322.158 94.8333 318.833 85.3793 318.833Z" fill="#FF8080"/>
<path d="M88.2576 0H82.501V321.438H88.2576V0Z" fill="#FF8080"/>
<path d="M76.2329 9.91686H106.654C108.852 9.91686 110.633 7.94992 110.633 5.52563" stroke="#964B4B" stroke-width="0.4251" stroke-miterlimit="10"/>
<path d="M103.551 7.72131V23.7623" stroke="#964B4B" stroke-width="0.75" stroke-miterlimit="10"/>
<path d="M113.736 21.0826H93.3649V43.5996C93.3649 45.9632 94.4528 48.1624 96.2529 49.4433L98.9936 51.3906C100.015 52.1159 100.632 53.3647 100.632 54.7045V56.9555C100.632 57.956 101.367 58.7653 102.272 58.7653H104.828C105.734 58.7653 106.468 57.9542 106.468 56.9555V54.7045C106.468 53.3647 107.084 52.1159 108.106 51.3906L110.847 49.4433C112.647 48.1641 113.735 45.9632 113.735 43.5996L113.736 21.0826Z" fill="#F8F8F8"/>
<path d="M108.011 31.3514C106.772 30.258 103.881 31.3514 103.881 31.3514C101.487 30.258 99.6687 31.3514 99.6687 31.3514C98.1665 30.292 96.8973 30.3045 96.0069 30.5742V43.5996C96.0069 44.977 96.6334 46.2454 97.6824 46.9904L100.423 48.9377C101.624 49.7898 102.489 51.0493 102.932 52.4928H104.166C104.609 51.0493 105.475 49.7898 106.675 48.9377L109.416 46.9904C110.465 46.2454 111.091 44.977 111.091 43.5996V30.3438C109.446 30.3098 108.011 31.3514 108.011 31.3514Z" fill="#BD3030"/>
<path d="M51.8339 289.64C51.8339 289.64 48.3129 276.911 57.0141 269.095C65.7153 261.279 69.968 256.551 68.2909 248.997C67.2662 244.383 62.073 246.094 58.8353 250.784C55.5976 255.473 54.1812 257.606 53.5741 254.419C52.9671 251.23 53.5741 231.132 53.9788 219.743C54.3835 208.354 48.5153 194.732 40.2188 198.082C31.9223 201.432 35.3623 219.52 40.2188 230.909C45.0753 242.298 49.3247 251.007 49.3247 261.279C49.3247 271.552 51.1459 273.338 47.9082 273.228C44.6706 273.117 44.6706 260.386 40.2188 249.89C35.767 239.395 25.8517 240.735 24.2329 246.764C22.614 252.794 29.6964 261.503 37.3858 268.202C45.0753 274.901 46.087 283.834 45.2776 289.64H51.8339Z" fill="#6D9C8B"/>
<path d="M29.358 246.318C29.358 246.318 38.3959 255.995 47.0308 276.54" stroke="#313F4A" stroke-width="0.4748" stroke-miterlimit="10"/>
<path d="M43.1181 202.847C43.1181 202.847 49.3231 223.243 51.4826 256.59" stroke="#313F4A" stroke-width="0.4748" stroke-miterlimit="10"/>
<path d="M65.6472 250.485C65.6472 250.485 55.2592 259.566 51.4825 268.052" stroke="#313F4A" stroke-width="0.4748" stroke-miterlimit="10"/>
<path d="M31.5175 286.873C31.5175 300.877 34.7616 315.33 36.6961 322.701C37.4715 325.658 39.9192 327.684 42.7085 327.684H53.5109C56.3001 327.684 58.7478 325.658 59.5232 322.701C61.4577 315.33 64.7018 300.877 64.7018 286.873H31.5175Z" fill="#313F4A"/>
<path d="M61.7831 312.956C63.2967 305.495 64.7035 296.093 64.7035 286.873H31.5175C31.5175 288.222 31.5563 289.574 31.6114 290.925C35.7394 292.843 39.5145 290.169 44.2334 294.187C48.9555 298.206 45.9137 299.845 51.4809 302.524C55.8355 304.62 60.072 308.807 61.7831 312.956Z" fill="#27323B"/>
<path d="M139.071 253.549C133.608 253.549 129.56 249.01 128.222 241.655L120.735 203.031C120.346 201.026 121.73 199.138 123.587 199.138H202.644C205.27 199.138 207.4 196.789 207.4 193.889C207.4 190.991 205.271 188.64 202.644 188.64H114.572C111.282 188.64 108.83 191.986 109.518 195.536L121.892 259.327C122.959 264.801 127.344 268.71 132.418 268.71H223.182L233.3 253.547L139.071 253.549Z" fill="#4F6578"/>
<path d="M189.357 253.549L179.239 268.711H223.182L233.3 253.549H189.357Z" fill="#97ADBA"/>
<path d="M158.33 176.678C156.069 194.97 120.926 258.687 94.4853 256.976C68.045 255.266 72.1358 223.046 77.0781 213.653C82.8346 202.711 91.8547 203.381 94.822 209.014C98.7202 216.411 87.5503 229.673 79.9563 223.702C64.3347 211.42 79.7151 184.185 86.4576 166.227C96.4409 139.64 104.427 74.3506 103.549 58.5508" stroke="#F8F8F8" stroke-width="0.4748" stroke-miterlimit="10"/>
<defs>
<filter id="filter0_d_0_1" x="0" y="300" width="378" height="56" filterUnits="userSpaceOnUse" color-interpolation-filters="sRGB">
<feFlood flood-opacity="0" result="BackgroundImageFix"/>
<feColorMatrix in="SourceAlpha" type="matrix" values="0 0 0 0 0 0 0 0 0 0 0 0 0 0 0 0 0 0 127 0" result="hardAlpha"/>
<feOffset dy="4"/>
<feGaussianBlur stdDeviation="2"/>
<feComposite in2="hardAlpha" operator="out"/>
<feColorMatrix type="matrix" values="0 0 0 0 0 0 0 0 0 0 0 0 0 0 0 0 0 0 0.25 0"/>
<feBlend mode="normal" in2="BackgroundImageFix" result="effect1_dropShadow_0_1"/>
<feBlend mode="normal" in="SourceGraphic" in2="effect1_dropShadow_0_1" result="shape"/>
</filter>
</defs>
</svg>
