<svg width="500" height="382" viewBox="0 0 500 382" fill="none" xmlns="http://www.w3.org/2000/svg">
<path d="M449.901 344.494H416.779V344.744H449.901V344.494Z" fill="#EBEBEB"/>
<path d="M331.22 347.208H322.527V347.458H331.22V347.208Z" fill="#EBEBEB"/>
<path d="M415.778 335.208H396.586V335.458H415.778V335.208Z" fill="#EBEBEB"/>
<path d="M95.652 336.888H52.459V337.138H95.652V336.888Z" fill="#EBEBEB"/>
<path d="M110.889 336.888H104.556V337.138H110.889V336.888Z" fill="#EBEBEB"/>
<path d="M225.147 341.111H131.471V341.361H225.147V341.111Z" fill="#EBEBEB"/>
<path d="M238.401 283.8H45.302C42.155 283.8 39.594 281.239 39.594 278.092V6.66C39.594 3.513 42.155 0.951996 45.302 0.951996H238.401C241.547 0.951996 244.108 3.513 244.108 6.66V278.092C244.108 281.239 241.547 283.8 238.401 283.8ZM45.302 1.203C42.292 1.203 39.844 3.651 39.844 6.661V278.093C39.844 281.103 42.292 283.551 45.302 283.551H238.401C241.41 283.551 243.858 281.103 243.858 278.093V6.66C243.858 3.651 241.41 1.202 238.401 1.202L45.302 1.203Z" fill="#EBEBEB"/>
<path d="M454.698 283.8H261.599C258.453 283.8 255.892 281.239 255.892 278.092V6.66C255.892 3.513 258.453 0.951996 261.599 0.951996H454.698C457.846 0.951996 460.406 3.513 460.406 6.66V278.092C460.406 281.239 457.845 283.8 454.698 283.8ZM261.599 1.203C258.59 1.203 256.142 3.651 256.142 6.661V278.093C256.142 281.103 258.59 283.551 261.599 283.551H454.698C457.708 283.551 460.156 281.103 460.156 278.093V6.66C460.156 3.651 457.708 1.202 454.698 1.202L261.599 1.203Z" fill="#EBEBEB"/>
<path d="M500 328.398H0V328.648H500V328.398Z" fill="#EBEBEB"/>
<path d="M350.073 322.592H445.25V195.947H350.073V322.592Z" fill="#F5F5F5"/>
<path d="M331.917 322.592H350.073V195.947H331.917V322.592Z" fill="#E6E6E6"/>
<path d="M356.25 236.1H438.583V205.345H356.25V236.1Z" fill="#DDC3C3"/>
<path d="M408.153 205.345L407.793 209.445C407.674 210.797 406.542 211.835 405.184 211.835H389.648C388.291 211.835 387.158 210.798 387.039 209.445L386.679 205.345H408.153Z" fill="#964B4B"/>
<path d="M356.25 270.215H438.583V239.46H356.25V270.215Z" fill="#DDC3C3"/>
<path d="M408.153 239.459L407.793 243.559C407.674 244.911 406.542 245.949 405.184 245.949H389.648C388.291 245.949 387.158 244.911 387.039 243.559L386.679 239.459H408.153Z" fill="#964B4B"/>
<path d="M356.25 304.329H438.583V273.574H356.25V304.329Z" fill="#DDC3C3"/>
<path d="M408.153 273.574L407.793 277.674C407.674 279.026 406.542 280.064 405.184 280.064H389.648C388.291 280.064 387.158 279.026 387.039 277.674L386.679 273.574H408.153Z" fill="#964B4B"/>
<path d="M356.25 328.915H437.583L438.583 322.582H356.25V328.915Z" fill="#E6E6E6"/>
<path d="M339.25 328.915H356.25V322.582H338.25L339.25 328.915Z" fill="#E0E0E0"/>
<path d="M394.482 196.084H426.982L423.376 154.868H390.876L394.482 196.084Z" fill="#DDC3C3"/>
<path d="M394.482 196.084H392.93L389.324 154.868H390.876L394.482 196.084Z" fill="#EBEBEB"/>
<path d="M397.427 191.882H423.3L420.43 159.07H394.557L397.427 191.882Z" fill="#DBD4D4"/>
<path d="M399.321 189.181H420.934L418.536 161.771H396.923L399.321 189.181Z" fill="#E6E6E6"/>
<path d="M385.35 196.084L387.582 170.573H355.229L352.997 196.084H385.35Z" fill="#DBD4D4"/>
<path d="M385.35 196.084L387.582 170.573H389.324L387.092 196.084H385.35Z" fill="#E0E0E0"/>
<path d="M382.279 193.483L384.056 173.174H358.3L356.523 193.483H382.279Z" fill="#EBEBEB"/>
<path d="M380.305 191.811L381.789 174.846H360.274L358.789 191.811H380.305Z" fill="#F5F5F5"/>
<path d="M310.644 311.77C310.644 318.53 309.583 322.903 307.796 325.708C306.452 327.819 304.04 329.005 301.537 329.005H291.749C289.247 329.005 286.835 327.818 285.49 325.708C283.703 322.902 282.642 318.53 282.642 311.77C282.642 301.965 286.917 294.115 288.313 287.847C288.816 285.59 287.142 278.673 287.142 278.673H306.142C306.142 278.673 304.468 285.591 304.971 287.847C306.369 294.115 310.644 301.965 310.644 311.77Z" fill="#EBEBEB"/>
<path d="M343 272.087C343 263.574 329.654 267.108 326.29 253.901C325.015 248.896 335.87 237.569 335.87 237.569H302.025C302.025 237.569 312.88 248.896 311.605 253.901C308.241 267.108 294.895 263.574 294.895 272.087C294.895 281.463 313.722 300.99 314.629 322.969C314.71 324.934 311.088 329.006 311.088 329.006H326.806C326.806 329.006 323.184 324.934 323.265 322.969C324.173 300.99 343 281.463 343 272.087Z" fill="#DBD4D4"/>
<g filter="url(#filter0_d_132_708)">
<path d="M332.771 294.21C334.738 290.072 330.671 276.005 330.671 276.005H345.338C345.338 276.005 341.27 290.073 343.237 294.21C344.626 297.131 347.785 298.996 347.785 302.452V323.224C347.785 328.603 343.384 329.005 338.004 329.005C332.624 329.005 328.223 328.604 328.223 323.224V302.452C328.223 298.996 331.382 297.131 332.771 294.21Z" fill="#DBD4D4"/>
</g>
<path d="M165.152 171.528C156.726 167.879 151.918 160.179 154.437 154.363C156.955 148.547 165.861 146.784 174.287 150.432C182.715 154.081 187.522 161.782 185.004 167.598C182.485 173.414 173.58 175.177 165.152 171.528ZM171.86 156.037C167.911 154.327 163.739 155.154 162.559 157.879C161.379 160.604 163.631 164.212 167.58 165.922C171.529 167.632 175.702 166.806 176.882 164.081C178.062 161.356 175.808 157.747 171.86 156.037Z" fill="#F0DD79"/>
<path d="M175.066 156.36L171.062 154.626L195.259 98.691C195.738 97.585 197.022 97.076 198.128 97.555C199.233 98.034 199.742 99.317 199.263 100.423L175.066 156.36Z" fill="#F0DD79"/>
<path d="M201.117 105.831L193.434 102.474L195.167 98.47L202.851 101.827L201.117 105.831Z" fill="#F0DD79"/>
<path d="M197.33 110.308L191.828 107.918L193.562 103.914L199.063 106.304L197.33 110.308Z" fill="#F0DD79"/>
<path d="M191.343 111.565L189.609 115.568L195.779 118.24L197.513 114.236L191.343 111.565Z" fill="#F0DD79"/>
<path d="M176.623 150.389L174.423 149.437C173.327 148.962 172.823 147.689 173.298 146.593L173.313 146.559C173.788 145.463 175.061 144.959 176.157 145.434L178.357 146.386C179.453 146.861 179.957 148.134 179.482 149.23L179.467 149.264C178.992 150.359 177.719 150.863 176.623 150.389Z" fill="#F0DD79"/>
<path d="M348.469 131.16C355.145 135.608 356.868 144.795 352.307 151.64C347.747 158.484 338.604 160.434 331.928 155.986C325.251 151.537 323.529 142.349 328.089 135.505C332.65 128.66 341.792 126.712 348.469 131.16ZM336.324 149.389C339.453 151.473 343.736 150.56 345.873 147.353C348.01 144.146 347.203 139.841 344.074 137.757C340.945 135.672 336.661 136.585 334.524 139.792C332.388 142.999 333.195 147.305 336.324 149.389Z" fill="#F0DD79"/>
<path d="M334.707 147.614L338.846 150.372L309.232 195.692C308.471 196.835 306.926 197.145 305.783 196.383C304.64 195.622 304.331 194.078 305.092 192.936L334.707 147.614Z" fill="#F0DD79"/>
<path d="M305.278 183.054L313.988 188.904L309.64 195.43L300.913 189.569C299.66 188.728 299.324 187.031 300.16 185.775L301.47 183.81C302.312 182.547 304.019 182.209 305.278 183.054Z" fill="#F0DD79"/>
<path d="M227.537 44.556L222.94 56.464C222.526 57.537 221.32 58.071 220.247 57.657C219.174 57.243 218.64 56.037 219.054 54.963L223.651 43.055C225.136 39.21 223.216 34.871 219.37 33.386L215.11 31.741C211.265 30.256 206.927 32.179 205.443 36.025L203.566 40.887L199.68 39.387L201.557 34.525C203.869 28.535 210.624 25.544 216.611 27.855L220.871 29.5C226.857 31.812 229.849 38.566 227.537 44.556Z" fill="#F0DD79"/>
<path d="M226.81 46.432C226.504 46.037 226.088 45.715 225.589 45.522L202.388 36.565C201.871 36.365 201.327 36.324 200.822 36.426C199.895 36.608 199.074 37.249 198.709 38.194L189.752 61.395C189.185 62.863 189.913 64.507 191.382 65.074L214.583 74.031C216.051 74.598 217.695 73.87 218.262 72.401L227.219 49.2C227.591 48.238 227.406 47.195 226.81 46.432ZM209.194 64.36L201.836 61.519L205.726 54.728C205.236 53.743 205.146 52.561 205.574 51.451C206.386 49.349 208.748 48.297 210.851 49.109C212.953 49.921 214.002 52.289 213.191 54.391C212.763 55.501 211.902 56.315 210.871 56.714L209.194 64.36Z" fill="#F0DD79"/>
<path d="M69.1569 315.456H254.286V215.824L69.1569 215.824V315.456Z" fill="#E6E6E6"/>
<path d="M239.445 328.384H251.08V319.593H239.445V328.384Z" fill="#E6E6E6"/>
<path d="M55.0254 328.384H66.6604L66.6604 208.412H55.0254L55.0254 328.384Z" fill="#E6E6E6"/>
<path d="M66.521 208.412V328.384H72.726V321.661H251.08V328.384H257.286V208.412H254.183H251.08H72.727H69.624H66.521ZM72.727 219.272H158.801V260.941H72.727V219.272ZM251.08 310.802H165.006V219.272H251.08V310.802ZM72.727 310.802V267.146H158.801V310.802H72.727Z" fill="#DBD4D4"/>
<path d="M165.006 310.802H245.262V223.754H165.006V310.802Z" fill="#DDC3C3"/>
<path d="M168.64 264.669C168.64 266.728 170.309 268.398 172.369 268.398C174.428 268.398 176.098 266.729 176.098 264.669C176.098 262.609 174.429 260.94 172.369 260.94C170.31 260.941 168.64 262.61 168.64 264.669Z" fill="#FAFAFA"/>
<path d="M172.369 268.398C173.873 268.398 175.161 267.503 175.75 266.221C175.968 266.695 176.097 267.217 176.097 267.772C176.097 269.831 174.428 271.501 172.368 271.501C170.309 271.501 168.639 269.832 168.639 267.772C168.639 267.217 168.769 266.694 168.986 266.221C169.577 267.503 170.865 268.398 172.369 268.398Z" fill="#E0E0E0"/>
<path d="M214.137 310.802H194.99L185.841 223.754H204.988L214.137 310.802Z" fill="#964B4B" fill-opacity="0.6"/>
<path d="M190.086 310.802H186.275L177.126 223.754H180.937L190.086 310.802Z" fill="#964B4B" fill-opacity="0.6"/>
<path d="M139.403 260.9H146.987V223.668H139.403V260.9Z" fill="#FAFAFA"/>
<path d="M107.956 260.9H115.54V223.668H107.956V260.9Z" fill="#F5F5F5"/>
<path d="M131.819 260.9H139.403V226.284H131.819V260.9Z" fill="#F5F5F5"/>
<path d="M115.541 260.9H123.125V226.284H115.541V260.9Z" fill="#FAFAFA"/>
<path d="M123.124 260.9H128.025V223.668H123.124V260.9Z" fill="#EBEBEB"/>
<path d="M128.026 260.9H131.818V226.284H128.026V260.9Z" fill="#FAFAFA"/>
<path d="M100.372 260.9H107.956V223.668H100.372V260.9Z" fill="#EBEBEB"/>
<path d="M92.7873 260.9H100.371V226.284H92.7873V260.9Z" fill="#E6E6E6"/>
<path d="M76.5098 260.9H84.0938V226.284H76.5098V260.9Z" fill="#E6E6E6"/>
<path d="M84.0934 260.9H88.9944V223.668H84.0934V260.9Z" fill="#FAFAFA"/>
<path d="M88.9949 260.9H92.7869V226.284H88.9949V260.9Z" fill="#EBEBEB"/>
<path d="M72.7173 260.9H76.5093V224.549H72.7173V260.9Z" fill="#EBEBEB"/>
<path d="M80.301 273.569H72.717V310.801H80.301V273.569Z" fill="#EBEBEB"/>
<path d="M111.748 273.569H104.164V310.801H111.748V273.569Z" fill="#FAFAFA"/>
<path d="M87.885 276.186H80.301V310.802H87.885V276.186Z" fill="#FAFAFA"/>
<path d="M104.163 276.186H96.5791V310.802H104.163V276.186Z" fill="#EBEBEB"/>
<path d="M96.579 273.569H91.678V310.801H96.579V273.569Z" fill="#FAFAFA"/>
<path d="M91.678 276.186H87.886V310.802H91.678V276.186Z" fill="#F5F5F5"/>
<path d="M119.332 273.569H111.748V310.801H119.332V273.569Z" fill="#EBEBEB"/>
<path d="M126.916 276.186H119.332V310.802H126.916V276.186Z" fill="#F5F5F5"/>
<path d="M143.194 276.186H135.61V310.802H143.194V276.186Z" fill="#E6E6E6"/>
<path d="M135.61 273.569H130.709V310.801H135.61V273.569Z" fill="#FAFAFA"/>
<path d="M151.888 273.569H146.987V310.801H151.888V273.569Z" fill="#FAFAFA"/>
<path d="M130.709 276.186H126.917V310.802H130.709V276.186Z" fill="#EBEBEB"/>
<path d="M146.987 274.451H143.195V310.802H146.987V274.451Z" fill="#EBEBEB"/>
<path d="M81.1801 144.288C81.1801 144.288 79.9071 144.874 79.3251 146.058C78.7431 147.242 80.5481 149.428 80.5481 149.428C80.5481 149.428 82.0631 150.483 83.5691 149.799C85.0751 149.115 85.0751 149.115 85.0751 149.115C85.0751 149.115 82.5001 144.647 81.2501 144.602L81.1801 144.288Z" fill="#F5716B"/>
<path d="M87.628 144.253C87.812 146.372 86.498 149.046 84.606 149.21C82.714 149.374 80.96 146.967 80.776 144.847C80.592 142.728 82.12 142.521 84.012 142.357C85.903 142.193 87.444 142.134 87.628 144.253Z" fill="#F5716B"/>
<path d="M82.085 143.629C82.085 143.629 83.531 144.781 86.51 144.108C86.51 144.108 81.811 147.243 82.085 143.629Z" fill="#F5716B"/>
<path d="M83.3601 143.208C83.3601 143.208 85.0281 142.918 85.0521 143.614C85.0521 143.614 86.4671 143.535 86.2711 142.943C86.0761 142.351 83.3601 143.208 83.3601 143.208Z" fill="#F5716B"/>
<g opacity="0.2">
<path d="M82.085 143.629C82.085 143.629 83.531 144.781 86.51 144.108C86.51 144.108 81.811 147.243 82.085 143.629Z" fill="#FAFAFA"/>
</g>
<g opacity="0.2">
<path d="M83.3601 143.208C83.3601 143.208 85.0281 142.918 85.0521 143.614C85.0521 143.614 86.4671 143.535 86.2711 142.943C86.0761 142.351 83.3601 143.208 83.3601 143.208Z" fill="#FAFAFA"/>
</g>
<path d="M81.429 149.88C82.031 150.856 83.259 151.358 84.397 151.222C85.536 151.086 86.561 150.375 87.218 149.435C87.875 148.495 88.188 147.346 88.261 146.202C88.28 145.906 88.303 145.165 87.913 145.05C87.555 144.945 87.334 145.446 87.168 145.679C86.691 146.351 86.185 146.98 85.578 147.541C84.989 148.084 84.338 148.56 83.641 148.954C83.445 149.064 81.535 150.052 81.429 149.88Z" fill="#F5716B"/>
<path d="M89.547 145.648C89.905 146.507 89.775 147.552 89.216 148.296C88.849 148.785 88.329 149.134 87.805 149.45C87.441 149.67 86.972 149.878 86.615 149.647C86.23 149.398 86.265 148.832 86.353 148.382C86.489 147.689 86.644 146.999 86.818 146.314C86.961 145.752 87.047 144.812 87.376 144.335C87.686 143.886 88.125 144.152 88.593 144.478C89.01 144.769 89.351 145.176 89.547 145.648Z" fill="#F5716B"/>
<g opacity="0.2">
<path d="M81.9132 148.706C81.1822 148.675 80.4912 148.18 80.2252 147.499C80.0292 146.995 80.0322 145.716 80.6852 145.554C80.9742 146.689 81.2242 147.721 81.9132 148.706Z" fill="#FAFAFA"/>
</g>
<g opacity="0.2">
<path d="M86.844 148.655C87.534 148.458 88.108 147.894 88.318 147.208C88.434 146.829 88.287 144.892 87.712 145.706C87.524 145.972 87.559 146.822 87.461 147.166C87.314 147.683 87.107 148.185 86.844 148.655Z" fill="#FAFAFA"/>
</g>
<g opacity="0.2">
<path d="M84.2022 149.851C84.7362 150.305 85.5892 150.327 86.1452 149.901C86.0722 150.276 84.8922 150.589 84.5262 150.696C83.5732 150.976 83.0742 150.557 82.1492 150.171C82.1492 150.171 83.6142 150.394 84.2022 149.851Z" fill="#FAFAFA"/>
</g>
<path d="M82.5471 188.801L82.6371 159.949L84.1171 151.175L84.6791 151.27L83.2061 160.004L83.1021 189.349L82.5471 188.801Z" fill="#083D2F"/>
<path d="M83.1481 159.803L82.6961 160.15C82.2431 159.56 81.8351 158.79 81.3631 157.898C80.6331 156.52 79.8051 154.957 78.5481 153.575L78.9701 153.192C80.2751 154.628 81.1211 156.224 81.8671 157.632C82.3261 158.501 82.7241 159.251 83.1481 159.803Z" fill="#083D2F"/>
<path d="M83.496 155.933C84.264 155.731 84.952 155.242 85.395 154.583C85.898 153.835 86.073 152.92 86.237 152.034C85.241 152.332 84.171 151.848 83.139 151.967C82.316 152.062 81.549 152.563 81.133 153.28C80.594 154.208 80.375 155.261 80.851 155.686C81.243 156.035 82.469 156.203 83.496 155.933Z" fill="#1E9979"/>
<path d="M79.6621 153.941C78.7421 154.524 77.5591 154.672 76.5241 154.334C75.4891 153.997 75.1871 152.441 74.7861 151.428C75.7251 151.235 78.1101 151.37 78.6501 151.424C79.1901 151.478 79.7381 151.722 80.0291 152.18C80.3191 152.638 80.2661 153.326 79.8261 153.643C79.7961 153.625 79.6621 153.941 79.6621 153.941Z" fill="#F5716B"/>
<path d="M74.9291 155.626C75.5621 154.86 77.1221 154.305 78.0991 154.483C79.0761 154.661 79.9101 155.334 80.2601 156.133C80.0021 156.753 79.3101 157.104 78.6401 157.152C77.9701 157.2 77.3091 157.002 76.6661 156.806C76.0241 156.61 75.3631 156.411 74.6931 156.459L74.9291 155.626Z" fill="#1E9979"/>
<path d="M94.1769 150.666C94.1769 150.666 95.2209 151.601 95.4289 152.903C95.6369 154.206 93.2689 155.765 93.2689 155.765C93.2689 155.765 91.5099 156.328 90.2719 155.232C89.0339 154.135 89.0339 154.135 89.0339 154.135C89.0339 154.135 92.8089 150.621 94.0159 150.946L94.1769 150.666Z" fill="#F5716B"/>
<path d="M88.0241 148.737C87.2251 150.709 87.6951 153.65 89.4561 154.363C91.2161 155.076 93.6011 153.291 94.3991 151.319C95.1981 149.348 93.7981 148.701 92.0381 147.988C90.2781 147.275 88.8231 146.765 88.0241 148.737Z" fill="#F5716B"/>
<path d="M93.506 149.77C93.506 149.77 91.785 150.446 89.135 148.927C89.135 148.927 92.704 153.304 93.506 149.77Z" fill="#F5716B"/>
<path d="M92.41 148.992C92.41 148.992 90.902 148.224 90.673 148.882C90.673 148.882 89.344 148.391 89.705 147.882C90.067 147.375 92.41 148.992 92.41 148.992Z" fill="#F5716B"/>
<g opacity="0.2">
<path d="M93.506 149.77C93.506 149.77 91.785 150.446 89.135 148.927C89.135 148.927 92.704 153.304 93.506 149.77Z" fill="#FAFAFA"/>
</g>
<g opacity="0.2">
<path d="M92.41 148.992C92.41 148.992 90.902 148.224 90.673 148.882C90.673 148.882 89.344 148.391 89.705 147.882C90.067 147.375 92.41 148.992 92.41 148.992Z" fill="#FAFAFA"/>
</g>
<path d="M92.2941 155.937C91.4321 156.693 90.1111 156.812 89.0621 156.347C88.0141 155.882 87.2431 154.901 86.8911 153.809C86.5391 152.718 86.5781 151.527 86.8451 150.412C86.9141 150.123 87.1101 149.408 87.5171 149.414C87.8911 149.419 87.9541 149.962 88.0441 150.234C88.3031 151.017 88.6011 151.766 89.0171 152.481C89.4201 153.173 89.9031 153.819 90.4531 154.401C90.6081 154.565 92.1421 156.071 92.2941 155.937Z" fill="#F5716B"/>
<path d="M85.78 149.505C85.185 150.221 85.0031 151.258 85.3181 152.134C85.5251 152.709 85.9201 153.196 86.3271 153.652C86.6111 153.969 86.998 154.306 87.407 154.19C87.849 154.065 87.982 153.514 88.029 153.058C88.103 152.355 88.1581 151.651 88.1931 150.945C88.2221 150.366 88.416 149.442 88.241 148.89C88.077 148.37 87.5791 148.495 87.0361 148.669C86.5511 148.823 86.106 149.112 85.78 149.505Z" fill="#F5716B"/>
<g opacity="0.2">
<path d="M92.178 154.673C92.886 154.858 93.691 154.589 94.146 154.015C94.482 153.591 94.854 152.368 94.278 152.021C93.667 153.021 93.125 153.934 92.178 154.673Z" fill="#FAFAFA"/>
</g>
<g opacity="0.2">
<path d="M87.4791 153.174C86.8771 152.783 86.4941 152.075 86.4951 151.357C86.4951 150.961 87.2061 149.152 87.5161 150.099C87.6171 150.408 87.3341 151.211 87.3261 151.568C87.3151 152.107 87.3661 152.648 87.4791 153.174Z" fill="#FAFAFA"/>
</g>
<g opacity="0.2">
<path d="M89.652 155.094C89.009 155.371 88.187 155.141 87.78 154.571C87.739 154.95 88.775 155.597 89.094 155.807C89.923 156.355 90.522 156.101 91.52 156.004C91.52 156.004 90.055 155.786 89.652 155.094Z" fill="#FAFAFA"/>
</g>
<path d="M81.7271 184.493L82.0861 183.311L82.5711 181.719L83.1321 179.861L87.618 165.09L88.1791 160.851L88.6771 157.09L88.7801 156.309L89.0591 156.345L89.0631 156.349L89.3461 156.385L89.3381 156.453L89.2381 157.189L88.7091 161.209L88.2751 164.485L88.1791 165.205L88.1441 165.321L83.1291 181.819L82.5631 183.67L82.3041 184.529L81.9461 185.704L81.7271 184.493Z" fill="#083D2F"/>
<path d="M87.7341 164.917L88.0641 165.382C88.6701 164.951 89.2871 164.335 90.0001 163.622C91.1031 162.519 92.3541 161.27 93.9621 160.317L93.6721 159.827C92.0021 160.815 90.7251 162.092 89.5981 163.219C88.9021 163.913 88.3021 164.514 87.7341 164.917Z" fill="#083D2F"/>
<path d="M88.539 161.115C87.865 160.696 87.351 160.026 87.12 159.267C86.859 158.404 86.961 157.478 87.065 156.583C87.93 157.16 89.094 157.013 90.046 157.43C90.805 157.762 91.39 158.467 91.577 159.274C91.819 160.32 91.719 161.39 91.139 161.657C90.663 161.875 89.441 161.675 88.539 161.115Z" fill="#1E9979"/>
<path d="M92.7901 160.339C93.4991 161.166 94.5851 161.656 95.6741 161.638C96.7631 161.62 97.5091 160.221 98.1901 159.371C97.3491 158.911 95.0301 158.338 94.4981 158.231C93.9661 158.124 93.3701 158.196 92.9581 158.548C92.5461 158.901 92.3951 159.574 92.7221 160.006C92.7541 159.997 92.7901 160.339 92.7901 160.339Z" fill="#1E9979"/>
<path d="M96.818 163.341C96.438 162.423 95.111 161.433 94.124 161.316C93.138 161.199 92.143 161.597 91.574 162.258C91.639 162.927 92.197 163.465 92.823 163.708C93.449 163.951 94.139 163.956 94.811 163.957C95.483 163.958 96.172 163.963 96.799 164.205L96.818 163.341Z" fill="#1E9979"/>
<path d="M73.9231 149.513C73.9231 149.513 72.7761 150.319 72.4161 151.588C72.0561 152.857 74.2251 154.684 74.2251 154.684C74.2251 154.684 75.9051 155.45 77.2631 154.506C78.6211 153.562 78.6211 153.562 78.6211 153.562C78.6211 153.562 75.2851 149.629 74.0481 149.81L73.9231 149.513Z" fill="#F5716B"/>
<path d="M80.2601 148.32C80.8211 150.372 80.0091 153.238 78.1771 153.739C76.3451 154.24 74.187 152.187 73.626 150.135C73.064 148.083 74.53 147.606 76.362 147.104C78.194 146.602 79.6981 146.268 80.2601 148.32Z" fill="#F5716B"/>
<path d="M74.6951 148.702C74.6951 148.702 76.3251 149.575 79.1351 148.378C79.1351 148.378 75.0751 152.306 74.6951 148.702Z" fill="#F5716B"/>
<path d="M75.874 148.058C75.874 148.058 77.462 147.473 77.611 148.153C77.611 148.153 78.989 147.821 78.69 147.274C78.391 146.728 75.874 148.058 75.874 148.058Z" fill="#F5716B"/>
<g opacity="0.2">
<path d="M74.6951 148.702C74.6951 148.702 76.3251 149.575 79.1351 148.378C79.1351 148.378 75.0751 152.306 74.6951 148.702Z" fill="#FAFAFA"/>
</g>
<g opacity="0.2">
<path d="M75.874 148.058C75.874 148.058 77.462 147.473 77.611 148.153C77.611 148.153 78.989 147.821 78.69 147.274C78.391 146.728 75.874 148.058 75.874 148.058Z" fill="#FAFAFA"/>
</g>
<path d="M75.1731 154.969C75.9411 155.821 77.2381 156.094 78.3341 155.756C79.4301 155.418 80.3101 154.534 80.7881 153.491C81.2651 152.448 81.3671 151.262 81.2331 150.123C81.1981 149.828 81.0881 149.095 80.6831 149.053C80.3121 149.014 80.1851 149.546 80.0631 149.806C79.7141 150.553 79.3301 151.262 78.8331 151.923C78.3511 152.563 77.7961 153.148 77.1811 153.661C77.0091 153.804 75.3091 155.119 75.1731 154.969Z" fill="#F5716B"/>
<path d="M82.3989 149.347C82.9059 150.128 82.9649 151.179 82.5489 152.012C82.2759 152.559 81.8269 152.996 81.3679 153.4C81.0489 153.681 80.6249 153.971 80.2319 153.808C79.8079 153.632 79.7409 153.069 79.7469 152.61C79.7559 151.904 79.7849 151.197 79.8329 150.492C79.8719 149.914 79.7879 148.973 80.0259 148.445C80.2499 147.948 80.7299 148.131 81.2489 148.367C81.7129 148.579 82.1209 148.918 82.3989 149.347Z" fill="#F5716B"/>
<g opacity="0.2">
<path d="M75.4381 153.727C74.7131 153.828 73.9451 153.465 73.5611 152.843C73.2771 152.382 73.0511 151.124 73.6641 150.847C74.1521 151.912 74.5831 152.882 75.4381 153.727Z" fill="#FAFAFA"/>
</g>
<g opacity="0.2">
<path d="M80.28 152.791C80.924 152.473 81.387 151.816 81.47 151.102C81.516 150.708 81.023 148.829 80.603 149.733C80.466 150.029 80.653 150.859 80.619 151.215C80.568 151.751 80.454 152.281 80.28 152.791Z" fill="#FAFAFA"/>
</g>
<g opacity="0.2">
<path d="M77.8961 154.442C78.5021 154.792 79.3461 154.661 79.8161 154.142C79.8121 154.523 78.7071 155.044 78.3661 155.215C77.4791 155.662 76.9131 155.339 75.9331 155.125C75.9331 155.125 77.4151 155.082 77.8961 154.442Z" fill="#FAFAFA"/>
</g>
<path d="M83.2651 193.056L78.1711 164.657L78.0491 155.76L78.6191 155.752L78.7401 164.609L83.9101 193.495L83.2651 193.056Z" fill="#083D2F"/>
<path d="M78.646 164.422L78.263 164.845C77.711 164.346 77.172 163.662 76.547 162.869C75.581 161.644 74.486 160.256 73.001 159.122L73.347 158.669C74.889 159.847 76.008 161.265 76.995 162.516C77.604 163.288 78.13 163.955 78.646 164.422Z" fill="#083D2F"/>
<path d="M78.294 160.552C79.013 160.215 79.602 159.61 79.92 158.883C80.281 158.057 80.288 157.126 80.29 156.224C79.364 156.696 78.224 156.412 77.23 156.714C76.437 156.955 75.773 157.586 75.493 158.366C75.13 159.376 75.103 160.451 75.648 160.784C76.095 161.058 77.332 161.003 78.294 160.552Z" fill="#1E9979"/>
<path d="M74.164 159.282C73.363 160.02 72.226 160.378 71.147 160.233C70.068 160.087 69.491 158.611 68.915 157.686C69.804 157.328 72.175 157.032 72.716 156.988C73.257 156.944 73.84 157.085 74.208 157.484C74.576 157.883 74.647 158.569 74.271 158.96C74.24 158.946 74.164 159.282 74.164 159.282Z" fill="#1E9979"/>
<path d="M69.811 161.79C70.296 160.923 71.731 160.096 72.724 160.096C73.717 160.095 74.658 160.607 75.146 161.331C75.003 161.987 74.385 162.456 73.735 162.624C73.084 162.792 72.399 162.716 71.732 162.638C71.065 162.56 70.379 162.484 69.728 162.651L69.811 161.79Z" fill="#1E9979"/>
<path d="M85.3552 175.633H79.3762C78.9282 175.624 78.5281 175.912 78.3941 176.34C77.9031 177.891 76.8582 181.97 76.8582 188.395C76.8582 195.454 78.6992 204.824 79.2782 207.592C79.3752 208.058 79.7842 208.393 80.2602 208.397H84.4231C84.8991 208.393 85.3082 208.058 85.4052 207.592C85.9842 204.824 87.8251 195.453 87.8251 188.395C87.8251 181.97 86.7792 177.891 86.2892 176.34C86.1582 175.93 85.7842 175.647 85.3552 175.633Z" fill="#964B4B"/>
<g filter="url(#filter1_d_132_708)">
<path d="M250 373.016C357.082 373.016 443.889 367.947 443.889 361.693C443.889 355.439 357.082 350.37 250 350.37C142.918 350.37 56.1111 355.439 56.1111 361.693C56.1111 367.947 142.918 373.016 250 373.016Z" fill="white"/>
</g>
<path d="M120.783 322.773C120.443 322.751 120.178 322.463 120.186 322.119C120.926 292.729 122.442 244.517 122.521 244.253C122.622 243.915 122.978 243.731 123.315 243.823C123.652 243.924 123.846 244.279 123.747 244.617C123.728 244.682 122.197 293.061 121.464 322.152C121.456 322.504 121.162 322.783 120.809 322.775C120.8 322.774 120.792 322.773 120.783 322.773Z" fill="#263238"/>
<path d="M116.833 224.631C117.079 226.895 119.789 234.742 122.053 234.496C124.316 234.25 125.276 226.003 125.03 223.739C124.784 221.476 122.749 219.84 120.486 220.086C118.222 220.333 116.587 222.368 116.833 224.631Z" fill="#F28985"/>
<path d="M127.819 249.385C127.573 247.121 124.863 239.274 122.599 239.52C120.335 239.766 119.375 248.013 119.621 250.277C119.867 252.54 121.902 254.176 124.165 253.93C126.43 253.684 128.066 251.65 127.819 249.385Z" fill="#F28985"/>
<path d="M109.949 242.502C112.213 242.256 120.06 239.546 119.814 237.282C119.568 235.019 111.321 234.059 109.058 234.305C106.794 234.551 105.159 236.586 105.405 238.849C105.651 241.113 107.685 242.748 109.949 242.502Z" fill="#F28985"/>
<path d="M134.703 231.515C132.439 231.761 124.592 234.471 124.838 236.735C125.085 238.999 133.331 239.959 135.595 239.712C137.859 239.466 139.494 237.431 139.248 235.168C139.002 232.905 136.966 231.269 134.703 231.515Z" fill="#F28985"/>
<path d="M109.689 232.141C111.464 233.568 118.929 237.201 120.356 235.426C121.783 233.651 116.63 227.141 114.856 225.714C113.081 224.288 110.486 224.57 109.059 226.345C107.633 228.119 107.915 230.714 109.689 232.141Z" fill="#F28985"/>
<path d="M134.962 241.876C133.187 240.449 125.722 236.817 124.295 238.592C122.869 240.366 128.021 246.876 129.796 248.303C131.571 249.729 134.166 249.447 135.592 247.673C137.02 245.898 136.737 243.302 134.962 241.876Z" fill="#F28985"/>
<path d="M117.459 249.645C118.885 247.87 122.518 240.405 120.743 238.978C118.968 237.551 112.459 242.704 111.032 244.479C109.605 246.254 109.888 248.849 111.663 250.275C113.437 251.702 116.032 251.42 117.459 249.645Z" fill="#F28985"/>
<path d="M127.194 224.372C125.768 226.147 122.135 233.612 123.91 235.039C125.685 236.465 132.195 231.313 133.621 229.538C135.048 227.763 134.765 225.168 132.99 223.742C131.216 222.315 128.62 222.598 127.194 224.372Z" fill="#F28985"/>
<g opacity="0.6">
<path d="M116.833 224.631C117.079 226.895 119.789 234.742 122.053 234.496C124.316 234.25 125.276 226.003 125.03 223.739C124.784 221.476 122.749 219.84 120.486 220.086C118.222 220.333 116.587 222.368 116.833 224.631Z" fill="white"/>
<path d="M127.819 249.385C127.573 247.121 124.863 239.274 122.599 239.52C120.335 239.766 119.375 248.013 119.621 250.277C119.867 252.54 121.902 254.176 124.165 253.93C126.43 253.684 128.066 251.65 127.819 249.385Z" fill="white"/>
<path d="M109.949 242.502C112.213 242.256 120.06 239.546 119.814 237.282C119.568 235.019 111.321 234.059 109.058 234.305C106.794 234.551 105.159 236.586 105.405 238.849C105.651 241.113 107.685 242.748 109.949 242.502Z" fill="white"/>
<path d="M134.703 231.515C132.439 231.761 124.592 234.471 124.838 236.735C125.085 238.999 133.331 239.959 135.595 239.712C137.859 239.466 139.494 237.431 139.248 235.168C139.002 232.905 136.966 231.269 134.703 231.515Z" fill="white"/>
<path d="M109.689 232.141C111.464 233.568 118.929 237.201 120.356 235.426C121.783 233.651 116.63 227.141 114.856 225.714C113.081 224.288 110.486 224.57 109.059 226.345C107.633 228.119 107.915 230.714 109.689 232.141Z" fill="white"/>
<path d="M134.962 241.876C133.187 240.449 125.722 236.817 124.295 238.592C122.869 240.366 128.021 246.876 129.796 248.303C131.571 249.729 134.166 249.447 135.592 247.673C137.02 245.898 136.737 243.302 134.962 241.876Z" fill="white"/>
<path d="M117.459 249.645C118.885 247.87 122.518 240.405 120.743 238.978C118.968 237.551 112.459 242.704 111.032 244.479C109.605 246.254 109.888 248.849 111.663 250.275C113.437 251.702 116.032 251.42 117.459 249.645Z" fill="white"/>
<path d="M127.194 224.372C125.768 226.147 122.135 233.612 123.91 235.039C125.685 236.465 132.195 231.313 133.621 229.538C135.048 227.763 134.765 225.168 132.99 223.742C131.216 222.315 128.62 222.598 127.194 224.372Z" fill="white"/>
</g>
<path d="M117.472 237.536C117.763 240.217 120.173 242.154 122.854 241.862C125.535 241.571 127.472 239.161 127.18 236.48C126.888 233.799 124.478 231.862 121.798 232.154C119.117 232.446 117.181 234.855 117.472 237.536Z" fill="#F28985"/>
<path d="M117.952 301.238C112.318 301.362 102.678 296.157 98.885 291.077C95.036 285.922 105.83 289.096 104.711 285.043C103.591 280.99 90.303 284.027 87.832 278.224C85.361 272.421 94.959 273.729 94.569 270.76C94.18 267.791 84.242 268.424 81.033 262.257C77.824 256.09 86.577 259.524 85.197 256.969C83.817 254.413 72.827 243.672 77.407 241.413C81.986 239.154 92.292 250.344 95.737 251.587C99.182 252.829 99.964 245.076 104.453 248.77C108.942 252.465 105.638 268.676 110.916 270.798C114.847 272.379 113.155 264.965 117.681 266.824C125.605 270.078 120.24 301.188 117.952 301.238Z" fill="#5E857B"/>
<g opacity="0.2">
<path d="M117.952 301.238C112.318 301.362 102.678 296.157 98.885 291.077C95.036 285.922 105.83 289.096 104.711 285.043C103.591 280.99 90.303 284.027 87.832 278.224C85.361 272.421 94.959 273.729 94.569 270.76C94.18 267.791 84.242 268.424 81.033 262.257C77.824 256.09 86.577 259.524 85.197 256.969C83.817 254.413 72.827 243.672 77.407 241.413C81.986 239.154 92.292 250.344 95.737 251.587C99.182 252.829 99.964 245.076 104.453 248.77C108.942 252.465 105.638 268.676 110.916 270.798C114.847 272.379 113.155 264.965 117.681 266.824C125.605 270.078 120.24 301.188 117.952 301.238Z" fill="white"/>
</g>
<path d="M126.049 294.089C126.143 294.247 125.3 295.046 128.082 295.161C134.933 295.443 147.046 294.981 151.595 288.752C158.09 279.859 143.11 280.675 144.567 275.771C146.024 270.867 162.116 274.872 165.257 267.871C168.398 260.87 156.694 262.237 157.236 258.635C157.779 255.033 170.059 259.7 174.106 252.274C178.153 244.848 167.426 248.821 169.164 245.744C170.902 242.668 184.52 229.859 179.003 227.004C173.486 224.149 160.689 237.52 156.469 238.951C152.249 240.381 151.273 227.267 145.726 231.656C140.179 236.045 143.819 255.841 137.35 258.299C132.531 260.13 135.16 253.035 129.214 253.307C121.136 253.678 118.48 281.436 126.049 294.089Z" fill="#5E857B"/>
<g opacity="0.3">
<path d="M126.049 294.089C126.143 294.247 125.3 295.046 128.082 295.161C134.933 295.443 147.046 294.981 151.595 288.752C158.09 279.859 143.11 280.675 144.567 275.771C146.024 270.867 162.116 274.872 165.257 267.871C168.398 260.87 156.694 262.237 157.236 258.635C157.779 255.033 170.059 259.7 174.106 252.274C178.153 244.848 167.426 248.821 169.164 245.744C170.902 242.668 184.52 229.859 179.003 227.004C173.486 224.149 160.689 237.52 156.469 238.951C152.249 240.381 151.273 227.267 145.726 231.656C140.179 236.045 143.819 255.841 137.35 258.299C132.531 260.13 135.16 253.035 129.214 253.307C121.136 253.678 118.48 281.436 126.049 294.089Z" fill="white"/>
</g>
<path d="M120.915 318.332C120.903 318.331 120.891 318.33 120.878 318.329C120.634 318.3 120.46 318.078 120.49 317.833C126.113 271.817 152.62 253.113 152.886 252.93C153.089 252.792 153.366 252.842 153.505 253.045C153.644 253.247 153.593 253.525 153.39 253.664C153.126 253.845 126.945 272.347 121.374 317.941C121.346 318.173 121.145 318.341 120.915 318.332Z" fill="#263238"/>
<path d="M146.855 259.323C146.674 259.316 146.508 259.197 146.449 259.016C146.373 258.782 146.501 258.531 146.735 258.455C146.9 258.401 150.847 257.153 157.314 258.526C157.555 258.577 157.709 258.814 157.658 259.054C157.607 259.295 157.37 259.45 157.13 259.398C150.915 258.08 147.049 259.291 147.011 259.303C146.959 259.318 146.906 259.325 146.855 259.323Z" fill="#263238"/>
<path d="M141.955 264.912C141.719 264.902 141.531 264.71 141.528 264.471C141.391 250.554 149.447 239.681 149.529 239.573C149.676 239.377 149.956 239.337 150.153 239.485C150.35 239.633 150.389 239.912 150.242 240.109C150.162 240.215 142.286 250.858 142.42 264.463C142.422 264.709 142.225 264.91 141.979 264.913C141.971 264.913 141.963 264.912 141.955 264.912Z" fill="#263238"/>
<path d="M134.061 276.691C133.949 276.686 133.838 276.64 133.755 276.551C133.586 276.373 133.594 276.091 133.773 275.921C133.833 275.865 139.797 270.351 147.607 273.149C147.838 273.232 147.959 273.487 147.876 273.719C147.793 273.95 147.538 274.072 147.306 273.988C140.005 271.369 134.44 276.516 134.385 276.569C134.295 276.655 134.177 276.695 134.061 276.691Z" fill="#263238"/>
<path d="M129.935 284.908C129.769 284.901 129.613 284.801 129.544 284.638C129.419 284.346 126.498 277.349 128.108 267.38C128.148 267.138 128.367 266.968 128.619 267.012C128.862 267.051 129.027 267.279 128.988 267.522C127.422 277.222 130.334 284.219 130.364 284.288C130.46 284.514 130.355 284.776 130.129 284.872C130.065 284.899 129.999 284.91 129.935 284.908Z" fill="#263238"/>
<path d="M121.094 334.769C120.863 334.76 120.675 334.572 120.668 334.338L120.09 322.15C118.385 281.625 90.5869 254.062 90.3059 253.789C90.1299 253.617 90.1259 253.335 90.2979 253.159C90.4709 252.983 90.7519 252.98 90.9279 253.151C91.2109 253.427 119.259 281.225 120.98 322.118L121.558 334.311C121.566 334.557 121.373 334.762 121.127 334.771C121.116 334.77 121.105 334.769 121.094 334.769Z" fill="#263238"/>
<path d="M101.771 269.012C101.747 269.011 101.722 269.008 101.698 269.003C101.659 268.995 101.611 268.976 101.568 268.953L101.424 268.895C97.7849 267.383 93.7189 266.599 89.9769 266.681C89.7269 266.693 89.5269 266.492 89.5219 266.245C89.5159 265.999 89.7109 265.796 89.9569 265.79C93.8209 265.707 98.0149 266.514 101.766 268.072L101.914 268.133C101.941 268.143 101.966 268.155 101.99 268.169C102.165 268.258 102.266 268.456 102.224 268.657C102.179 268.875 101.984 269.021 101.771 269.012Z" fill="#263238"/>
<path d="M105.702 274.231C105.695 274.231 105.687 274.23 105.68 274.229C105.435 274.208 105.254 273.99 105.276 273.746C106.352 261.785 100.158 251.944 100.095 251.846C99.9629 251.639 100.023 251.363 100.23 251.231C100.439 251.099 100.713 251.159 100.845 251.366C100.909 251.466 107.268 261.553 106.163 273.826C106.142 274.064 105.938 274.241 105.702 274.231Z" fill="#263238"/>
<path d="M109.758 281.16C109.65 281.156 109.542 281.111 109.46 281.029C109.415 280.983 104.901 276.528 98.2949 278.288C98.0559 278.353 97.8129 278.209 97.7499 277.972C97.6869 277.734 97.8279 277.49 98.0659 277.427C105.187 275.527 109.898 280.203 110.094 280.403C110.267 280.578 110.265 280.859 110.09 281.033C109.998 281.122 109.878 281.165 109.758 281.16Z" fill="#263238"/>
<path d="M114.907 292.58C114.843 292.577 114.779 292.561 114.719 292.53C114.501 292.416 114.417 292.147 114.531 291.929C114.562 291.869 117.621 285.89 116.924 277.264C116.904 277.019 117.086 276.804 117.332 276.785C117.579 276.755 117.792 276.947 117.812 277.193C118.532 286.089 115.452 292.091 115.321 292.343C115.238 292.499 115.074 292.586 114.907 292.58Z" fill="#263238"/>
<path d="M146.157 336.688C146.157 350.902 139.764 362.43 120.403 362.43C101.925 362.43 94.6489 350.902 94.6489 336.688C94.6489 331.327 96.2959 326.34 99.0989 322.217H141.707C144.51 326.34 146.157 331.327 146.157 336.688Z" fill="#964B4B"/>
<path d="M294.101 349.863L304.061 348.409L301.546 325.108L291.585 326.562L294.101 349.863Z" fill="#E8BFBF"/>
<path d="M311.719 348.758C312.584 348.694 313.402 348.339 314.039 347.75C314.311 347.407 314.397 346.952 314.269 346.534C314.212 346.272 314.023 346.058 313.769 345.97C312.438 345.495 308.795 348.179 308.388 348.482C308.309 348.546 308.275 348.649 308.3 348.747C308.334 348.841 308.423 348.904 308.523 348.905C309.59 348.953 310.66 348.904 311.719 348.758ZM313.12 346.422C313.27 346.385 313.427 346.39 313.574 346.434C313.679 346.467 313.757 346.554 313.78 346.662C313.862 346.938 313.807 347.237 313.632 347.466C313.12 348.104 311.494 348.464 309.226 348.463C310.407 347.559 311.734 346.864 313.15 346.407L313.12 346.422Z" fill="#EA4842"/>
<path d="M308.578 348.916L308.66 348.878C309.765 348.15 311.758 345.613 311.384 344.517C311.269 344.272 311.061 343.958 310.393 343.995C309.91 344.003 309.452 344.217 309.135 344.582C308.056 345.82 308.27 348.548 308.273 348.659C308.27 348.743 308.307 348.823 308.373 348.874C308.431 348.92 308.507 348.935 308.578 348.916ZM310.253 344.496L310.386 344.434C310.826 344.416 310.877 344.579 310.891 344.634C311.126 345.297 309.805 347.246 308.705 348.146C308.603 346.999 308.87 345.849 309.465 344.863C309.678 344.641 309.966 344.506 310.273 344.486L310.253 344.496Z" fill="#EA4842"/>
<path d="M303.043 344.284L294.21 346.389C293.812 346.471 293.541 346.841 293.584 347.245L293.869 360.026C293.992 360.922 294.818 361.548 295.713 361.425C295.775 361.416 295.837 361.404 295.897 361.389C299.723 360.436 301.529 359.786 306.394 358.664C309.375 357.978 318.822 357.266 322.692 355.542C326.561 353.819 325.054 349.897 323.289 350.267C317.613 351.488 310.32 349.058 306.177 345.359C305.615 345.084 303.649 344.127 303.043 344.284Z" fill="#263238"/>
<path opacity="0.2" d="M301.546 325.108L302.842 337.118L292.883 338.583L291.576 326.575L301.546 325.108Z" fill="black"/>
<path d="M306.866 332.175L288.437 335.616C288.437 335.616 279.488 322.84 277.799 313.767C276.041 304.32 277.92 272.158 277.799 271.731C272.586 254.134 258.424 208.53 251.585 191.75C247.798 182.45 245.14 176.189 245.14 176.189L247.055 175.759L262.098 169.597L273.06 171.663C273.06 171.663 306.373 239.025 309.865 264.366C312.471 283.287 306.866 332.175 306.866 332.175Z" fill="#EA4842"/>
<path opacity="0.3" d="M306.866 332.175L288.437 335.616C288.437 335.616 279.488 322.84 277.799 313.767C276.041 304.32 277.92 272.158 277.799 271.731C272.586 254.134 258.424 208.53 251.585 191.75C247.798 182.45 245.14 176.189 245.14 176.189L247.055 175.759L262.098 169.597L273.06 171.663C273.06 171.663 306.373 239.025 309.865 264.366C312.471 283.287 306.866 332.175 306.866 332.175Z" fill="white"/>
<path opacity="0.2" d="M273.458 256.491C268.245 238.894 257.731 212.199 250.891 195.418L246.36 179.428L245.489 176.352L247.075 179.258L264.929 218.804C272.807 233.946 273.578 256.918 273.458 256.491Z" fill="black"/>
<path d="M192.572 344.376L201.449 348.116L210.923 327.789L202.046 324.049L192.572 344.376Z" fill="#E8BFBF"/>
<path d="M207.233 352.371C207.937 352.811 208.769 352.999 209.594 352.904C209.998 352.793 210.321 352.49 210.459 352.095C210.564 351.86 210.538 351.588 210.392 351.377C209.633 350.258 205.303 350.272 204.818 350.275C204.721 350.28 204.636 350.34 204.6 350.43C204.573 350.522 204.606 350.621 204.683 350.678C205.479 351.319 206.333 351.886 207.233 352.371ZM209.635 351.359C209.771 351.415 209.89 351.507 209.979 351.625C210.041 351.71 210.053 351.822 210.009 351.917C209.916 352.177 209.705 352.376 209.44 352.454C208.684 352.657 207.225 352.016 205.475 350.734C206.898 350.704 208.316 350.917 209.667 351.364L209.635 351.359Z" fill="#EA4842"/>
<path d="M204.719 350.718L204.804 350.735C206.069 350.798 209.041 349.965 209.372 348.907C209.422 348.653 209.438 348.292 208.902 347.944C208.524 347.677 208.05 347.583 207.599 347.686C206.066 348.032 204.689 350.26 204.628 350.347C204.578 350.41 204.562 350.493 204.584 350.57C204.602 350.638 204.653 350.692 204.719 350.718ZM208.51 348.252L208.648 348.279C208.998 348.514 208.946 348.668 208.925 348.719C208.731 349.364 206.61 350.122 205.252 350.195C205.822 349.252 206.677 348.515 207.694 348.09C207.984 348.039 208.283 348.098 208.531 348.256L208.51 348.252Z" fill="#EA4842"/>
<path d="M203.063 344.013L195.053 340.646C194.7 340.485 194.281 340.617 194.086 340.953L187.083 350.982C186.672 351.743 186.955 352.693 187.716 353.105C187.769 353.134 187.823 353.159 187.879 353.181C191.372 354.607 193.133 355.126 197.524 357.01C200.214 358.165 207.911 362.955 211.872 363.811C215.833 364.668 216.887 360.787 215.314 360.075C210.241 357.809 205.983 351.811 204.875 346.614C204.596 346.085 203.619 344.235 203.063 344.013Z" fill="#263238"/>
<path opacity="0.2" d="M211.311 328.028L206.175 338.384L197.387 334.44L202.514 324.08L211.311 328.028Z" fill="black"/>
<path d="M213.16 339.314L195.48 329.889C195.48 329.889 192.09 317.302 195.48 309.273C202.004 293.821 218.977 271.102 219.092 270.674C223.621 252.888 231.566 204.182 234.279 186.265C235.786 176.337 236.671 174.195 236.671 174.195L238.536 174.806L265.589 174.86C265.589 174.86 270.693 215.827 251.133 279.257C246.266 295.039 238.113 308.161 224.698 325.912C219.603 332.652 213.16 339.314 213.16 339.314Z" fill="#EA4842"/>
<path opacity="0.3" d="M213.16 339.314L195.48 329.889C195.48 329.889 192.09 317.302 195.48 309.273C202.004 293.821 218.977 271.102 219.092 270.674C223.621 252.888 231.566 204.182 234.279 186.265C235.786 176.337 236.671 174.195 236.671 174.195L238.536 174.806L265.589 174.86C265.589 174.86 270.693 215.827 251.133 279.257C246.266 295.039 238.113 308.161 224.698 325.912C219.603 332.652 213.16 339.314 213.16 339.314Z" fill="white"/>
<path d="M289.556 141.386C289.754 138.348 291.769 134.435 293.507 132.626C294.065 132.048 296.174 131.168 297.369 130.39C303.243 126.536 314.999 121.729 314.999 121.729L318.627 124.892C318.627 124.892 311.466 131.814 307.206 135.133C306.369 135.785 305.399 136.577 304.377 137.414C302.525 138.96 293.802 144.713 292.137 146.155L289.556 141.386Z" fill="#E8BFBF"/>
<path d="M325.342 119.94L318.632 124.898L314.867 122.126C314.867 122.126 316.403 120.169 317.982 118.653C318.675 117.987 319.049 117.07 319.058 116.109C319.071 114.631 319.294 112.916 320.097 111.658C320.117 111.629 320.127 111.599 320.146 111.579C321.601 109.387 325.002 110.046 325.69 112.582L326.659 116.159C327.04 117.571 326.518 119.072 325.342 119.94Z" fill="#E8BFBF"/>
<path d="M291.702 142.727L289.933 144.349C289.382 143.907 288.508 143.199 287.407 142.285C278.787 135.129 257.177 117.771 265.792 112.817C273.176 108.571 281.018 121.565 284.93 125.467C285.726 126.273 287.908 128.789 289.668 131.945C291.505 135.256 292.872 139.267 291.702 142.727Z" fill="#263238"/>
<path d="M289.663 130.391C286.604 132.627 283.992 135.473 282.027 138.712C283.444 143.409 287.013 147.496 291.514 149.448C293.98 143.725 295.129 137.572 294.64 131.359C293.079 131.023 291.223 130.727 289.663 130.391Z" fill="#263238"/>
<path d="M242.208 111.805C239.124 112.796 235.594 112.003 233.615 114.567C231.636 117.131 231.041 120.515 231.044 123.754C231.048 128.259 232.078 132.692 233.103 137.078C234.345 142.397 235.587 147.715 236.829 153.034C237.678 156.67 236.785 173.576 237.691 173.859C237.691 173.859 265.96 173.305 273.048 172.312C273.048 172.312 273.664 154.933 274.233 149.014C274.359 147.701 276.353 142.125 276.587 140.724C277.691 134.122 275.527 129.466 273.241 123.174C273.241 123.174 268.235 113.095 265.791 112.82C261.44 112.329 250.801 109.044 242.208 111.805Z" fill="#263238"/>
<path d="M241.018 120.145C240.918 119.558 235.901 109.423 231.093 116.507C224.4 126.367 223.949 138.747 223.949 138.747C223.949 138.747 219.836 150.785 222.702 153.414C225.568 156.043 228.659 157.735 230.662 156.244C232.664 154.753 233.963 151.774 233.963 151.774C233.963 151.774 242.776 130.46 241.018 120.145Z" fill="#263238"/>
<path d="M240.695 108.046C238.584 109.693 238.862 113.51 241.189 114.833C240.604 116.877 241.288 119.229 242.878 120.641C244.468 122.053 246.884 122.454 248.845 121.631C247.997 123.15 248.953 125.155 250.416 126.095C251.879 127.035 253.687 127.206 255.41 127.437C257.134 127.668 258.955 128.039 260.206 129.247C261.988 126.683 263.769 124.12 265.551 121.556C266.245 120.558 266.964 119.487 267.018 118.273C267.072 117.058 266.148 115.719 264.936 115.808C266.169 114.523 266.194 112.27 264.99 110.958C263.786 109.646 261.539 109.478 260.154 110.596C260.402 109.569 259.8 108.478 258.933 107.874C258.065 107.27 256.985 107.064 255.933 106.961L240.695 108.046Z" fill="#263238"/>
<path d="M243.902 94.995C245.293 100.098 246.981 109.507 243.606 113.226C243.606 113.226 253.154 117.049 259.94 124.721C263.098 121.653 262.77 118.206 261.803 115.685C261.053 113.732 259.442 112.282 257.516 111.464C253.8 109.885 253.768 106.226 254.386 102.719L243.902 94.995Z" fill="#E8BFBF"/>
<path opacity="0.2" d="M245.982 103.685L249.493 104.638C250.997 105.046 252.569 105.139 254.11 104.912C254.096 105.668 253.96 107.274 254.436 108.121C252.42 109.094 249.009 108.426 247.502 106.65C246.878 105.957 246.322 104.554 245.982 103.685Z" fill="black"/>
<path d="M237.087 90.651C240.804 98.495 242.21 101.892 247.932 104.389C256.553 108.163 265.348 101.862 264.045 93.066C262.874 85.155 256.989 73.655 247.839 73.614C241.301 73.55 235.948 78.797 235.884 85.336C235.867 87.176 236.278 88.996 237.087 90.651Z" fill="#E8BFBF"/>
<path d="M241.171 75.671C238.463 74.406 235.097 75.438 232.842 77.422C230.547 79.441 229.15 82.265 227.811 85.012C227.083 86.505 226.348 88.018 226.011 89.645C225.674 91.272 225.771 93.051 226.631 94.473C227.473 95.867 229.041 96.782 230.662 96.877C231.594 96.931 232.685 97.605 232.987 98.489C233.267 99.31 233.134 100.199 233.003 101.052C232.876 101.878 232.755 102.74 233.014 103.533C233.446 104.853 234.858 105.654 236.24 105.788C237.622 105.922 238.995 105.522 240.326 105.126C241.17 104.875 242.019 105.02 242.675 105.608C242.839 105.755 242.973 105.931 243.075 106.125C243.489 106.912 244.688 106.788 245.033 105.968C246.243 103.093 244.482 98.496 241.859 94.988C240.467 93.126 240.543 93.601 239.996 91.341C239.541 89.461 240.23 87.499 241.072 85.757C242.196 83.434 243.64 81.168 243.194 78.395C243.005 77.222 242.247 76.173 241.171 75.671Z" fill="#263238"/>
<path d="M237.322 98.675C238.555 99.987 240.258 100.756 242.058 100.813C244.446 100.865 245.052 98.587 243.899 96.644C242.858 94.892 240.362 92.762 238.2 93.608C236.038 94.455 235.818 97.04 237.322 98.675Z" fill="#E8BFBF"/>
<path d="M252.033 89.255C252.309 89.942 252.855 90.305 253.287 90.128C253.719 89.951 253.825 89.299 253.586 88.633C253.346 87.967 252.766 87.59 252.332 87.76C251.899 87.929 251.775 88.602 252.033 89.255Z" fill="#263238"/>
<path d="M259.352 86.105C259.621 86.794 260.174 87.155 260.599 86.98C261.024 86.805 261.137 86.151 260.898 85.485C260.659 84.819 260.078 84.442 259.651 84.61C259.225 84.777 259.086 85.453 259.352 86.105Z" fill="#263238"/>
<path d="M259.463 84.728L260.853 83.64C260.853 83.64 260.552 85.189 259.463 84.728Z" fill="#263238"/>
<path d="M257.452 87.574C259.151 89.251 260.43 89.558 262.27 90.71C262.217 92.344 260.679 92.719 260.679 92.719L257.452 87.574Z" fill="#F07F7B"/>
<path d="M259.903 95.921C260.22 95.802 260.527 95.657 260.821 95.487C260.917 95.436 260.953 95.316 260.902 95.221C260.9 95.218 260.898 95.215 260.897 95.211C260.84 95.116 260.72 95.079 260.619 95.126C259.068 96.027 257.179 96.127 255.542 95.394C255.44 95.34 255.313 95.378 255.258 95.481C255.203 95.583 255.242 95.711 255.345 95.765C256.781 96.425 258.423 96.481 259.903 95.921Z" fill="#263238"/>
<path d="M251.76 83.81C251.75 83.997 251.621 84.157 251.44 84.207C249.522 84.776 248.671 87.21 248.667 87.23C248.591 87.456 248.347 87.578 248.121 87.502C247.895 87.426 247.773 87.182 247.848 86.956C247.922 86.864 248.851 84.072 251.188 83.374C251.416 83.31 251.654 83.439 251.724 83.666C251.748 83.71 251.76 83.76 251.76 83.81Z" fill="#263238"/>
<path d="M260.609 82.633C260.449 82.731 260.245 82.716 260.101 82.596C258.54 81.344 256.055 82.032 256.037 82.04C255.808 82.107 255.568 81.975 255.502 81.746C255.435 81.517 255.567 81.277 255.796 81.211C255.914 81.219 258.737 80.391 260.643 81.915C260.826 82.066 260.855 82.335 260.709 82.522C260.684 82.566 260.65 82.604 260.609 82.633Z" fill="#263238"/>
<path d="M252.158 87.875L253.549 86.794C253.549 86.794 253.234 88.34 252.158 87.875Z" fill="#263238"/>
<path d="M241.768 74.361C239.584 74.536 237.511 75.779 236.326 77.622C235.531 78.859 235.251 80.739 236.427 81.622C236.977 82.035 237.702 82.11 238.388 82.17C241.432 82.437 245.184 80.086 245.184 80.086C244.011 75.116 254.438 71.27 259.578 78.969C261.088 81.231 260.68 82.874 263.191 83.919C264.373 84.411 265.931 84.275 266.688 85.308C267.944 87.021 265.53 89.922 267.063 91.393C268.112 92.399 270.49 92.015 270.636 93.461C270.705 94.141 270.26 95.125 270.914 95.324C271.276 95.434 271.609 95.103 271.843 94.806C272.408 94.088 272.99 93.337 273.184 92.445C273.378 91.552 273.06 90.477 272.229 90.099C271.59 89.808 269.901 90.133 270.016 90.825C270.154 91.658 269.439 87.57 269.759 86.025C270.038 84.68 271.323 83.514 270.933 82.196C270.518 80.79 268.847 80.229 267.398 80.014C265.948 79.799 264.303 79.623 263.412 78.459C262.417 77.159 262.869 75.302 262.55 73.696C262.143 71.654 260.44 70.063 258.529 69.235C252.732 66.72 243.764 67.077 241.768 74.361Z" fill="#263238"/>
<path d="M258.235 101.044L238.24 111.089C231.666 114.391 228.692 122.156 231.378 129.006L241.021 153.599C243.707 160.448 251.169 164.129 258.238 162.09L279.74 155.889C287.798 153.566 292.111 144.821 289.05 137.014L277.9 108.577C274.839 100.771 265.728 97.28 258.235 101.044ZM254.931 143.28C250.473 145.025 245.441 142.826 243.693 138.369C241.945 133.912 244.144 128.884 248.602 127.139C253.06 125.394 258.09 127.592 259.838 132.049C261.586 136.506 259.389 141.535 254.931 143.28Z" fill="#DB572E"/>
<path d="M258.235 101.044L238.24 111.089C231.666 114.391 228.692 122.156 231.378 129.006L241.021 153.599C243.707 160.448 251.169 164.129 258.238 162.09L279.74 155.889C287.798 153.566 292.111 144.821 289.05 137.014L277.9 108.577C274.839 100.771 265.728 97.28 258.235 101.044ZM254.931 143.28C250.473 145.025 245.441 142.826 243.693 138.369C241.945 133.912 244.144 128.884 248.602 127.139C253.06 125.394 258.09 127.592 259.838 132.049C261.586 136.506 259.389 141.535 254.931 143.28Z" fill="#DB572E"/>
<path opacity="0.1" d="M289.054 137.018L277.898 108.582C274.841 100.768 265.729 97.278 258.239 101.043L252.43 103.962L248.528 105.918L238.247 111.088C231.671 114.391 228.693 122.156 231.376 129.007L241.019 153.6C243.712 160.451 251.173 164.127 258.24 162.093L279.747 155.891C281.506 155.38 283.089 154.564 284.455 153.512C285.517 152.706 286.441 151.762 287.217 150.711C290.037 146.916 290.922 141.795 289.054 137.018ZM254.926 143.279C250.473 145.029 245.44 142.827 243.691 138.364C241.941 133.911 244.143 128.879 248.606 127.139C253.058 125.389 258.091 127.591 259.841 132.044C261.581 136.507 259.389 141.53 254.926 143.279Z" fill="#DB572E"/>
<path d="M258.442 102.915L239.689 112.335C233.524 115.432 230.735 122.715 233.254 129.14L242.298 152.204C244.817 158.628 251.815 162.08 258.446 160.169L278.612 154.353C286.169 152.174 290.215 143.973 287.344 136.651L276.886 109.98C274.015 102.659 265.469 99.384 258.442 102.915ZM243.693 138.369C241.945 133.912 244.144 128.884 248.602 127.139C253.06 125.394 258.09 127.592 259.838 132.049C261.586 136.506 259.389 141.535 254.931 143.28C250.473 145.025 245.441 142.826 243.693 138.369Z" fill="#DB572E"/>
<path opacity="0.1" d="M258.442 102.915L239.689 112.335C233.524 115.432 230.735 122.715 233.254 129.14L242.298 152.204C244.817 158.628 251.815 162.08 258.446 160.169L278.612 154.353C286.169 152.174 290.215 143.973 287.344 136.651L276.886 109.98C274.015 102.659 265.469 99.384 258.442 102.915ZM243.693 138.369C241.945 133.912 244.144 128.884 248.602 127.139C253.06 125.394 258.09 127.592 259.838 132.049C261.586 136.506 259.389 141.535 254.931 143.28C250.473 145.025 245.441 142.826 243.693 138.369Z" fill="#DB572E"/>
<path d="M351.618 94.021L351.045 95.068L350.727 95.649L349.822 97.302L350.201 101.533C350.217 101.714 350.196 101.893 350.143 102.058C350.022 102.424 349.744 102.729 349.37 102.876L341.466 105.97C341.093 106.116 340.683 106.083 340.345 105.894C340.236 105.834 340.135 105.759 340.045 105.666L335.578 101.123L335.566 101.11L329.212 103.597L330.133 105.945L323.779 108.432L325.295 112.299L320.617 114.13C320.234 114.28 319.811 114.254 319.456 114.069C319.339 114.011 319.231 113.933 319.133 113.842L316.437 111.306L310.083 113.793L311.599 117.66L304.918 120.275L306.441 124.158C306.69 124.792 306.377 125.508 305.743 125.756L287.446 132.919L279.506 112.671L345.691 86.763L346.726 87.294L350.082 89.017C351.911 89.956 352.606 92.219 351.618 94.021Z" fill="#DB572E"/>
<g opacity="0.1">
<path d="M351.618 94.021L351.045 95.068L350.727 95.649L349.822 97.302L350.201 101.533C350.217 101.714 350.196 101.893 350.143 102.058C350.022 102.424 349.744 102.729 349.37 102.876L341.466 105.97C341.093 106.116 340.683 106.083 340.345 105.894C340.236 105.834 340.135 105.759 340.045 105.666L335.578 101.123L335.566 101.11L329.212 103.597L330.133 105.945L323.779 108.432L325.295 112.299L320.617 114.13C320.234 114.28 319.811 114.254 319.456 114.069C319.339 114.011 319.231 113.933 319.133 113.842L316.437 111.306L310.083 113.793L311.599 117.66L304.918 120.275L306.441 124.158C306.69 124.792 306.377 125.508 305.743 125.756L287.446 132.919L279.506 112.671L345.691 86.763L346.726 87.294L350.082 89.017C351.911 89.956 352.606 92.219 351.618 94.021Z" fill="#DB572E"/>
</g>
<path d="M351.358 91.716L280.597 119.415L278.535 114.218L346.002 87.808L349.358 89.531C350.636 90.187 351.37 90.796 351.358 91.716Z" fill="#DB572E"/>
<path opacity="0.1" d="M351.358 91.716L280.597 119.415L278.535 114.218L346.002 87.808L349.358 89.531C350.636 90.187 351.37 90.796 351.358 91.716Z" fill="#DB572E"/>
<path d="M349.961 95.618L349.276 97.156C349.265 97.181 349.26 97.209 349.263 97.236L349.646 101.425C349.66 101.578 349.647 101.73 349.611 101.873C349.599 101.922 349.561 101.961 349.514 101.98L340.921 105.362C340.875 105.38 340.822 105.378 340.779 105.351C340.696 105.299 340.617 105.236 340.547 105.164L335.632 100.226C335.587 100.18 335.519 100.166 335.459 100.19L328.483 102.936C328.4 102.969 328.359 103.062 328.392 103.145L329.222 105.25C329.255 105.333 329.214 105.426 329.131 105.459L323.182 107.801C323.099 107.834 323.059 107.927 323.091 108.01L324.524 111.644C324.557 111.727 324.516 111.82 324.433 111.853L320.068 113.571C320.024 113.589 319.973 113.587 319.931 113.563C319.839 113.51 319.753 113.446 319.674 113.372L316.483 110.431C316.437 110.389 316.372 110.377 316.315 110.4L309.385 113.128C309.302 113.161 309.261 113.254 309.294 113.337L310.762 117.061C310.795 117.144 310.754 117.237 310.671 117.27L284.063 127.741C283.98 127.774 283.887 127.733 283.854 127.651L281.199 120.986C281.166 120.903 281.207 120.809 281.29 120.776L350.626 93.486C350.761 93.433 350.892 93.571 350.832 93.703L349.961 95.618Z" fill="#DB572E"/>
<path opacity="0.1" d="M349.961 95.618L349.276 97.156C349.265 97.181 349.26 97.209 349.263 97.236L349.646 101.425C349.66 101.578 349.647 101.73 349.611 101.873C349.599 101.922 349.561 101.961 349.514 101.98L340.921 105.362C340.875 105.38 340.822 105.378 340.779 105.351C340.696 105.299 340.617 105.236 340.547 105.164L335.632 100.226C335.587 100.18 335.519 100.166 335.459 100.19L328.483 102.936C328.4 102.969 328.359 103.062 328.392 103.145L329.222 105.25C329.255 105.333 329.214 105.426 329.131 105.459L323.182 107.801C323.099 107.834 323.059 107.927 323.091 108.01L324.524 111.644C324.557 111.727 324.516 111.82 324.433 111.853L320.068 113.571C320.024 113.589 319.973 113.587 319.931 113.563C319.839 113.51 319.753 113.446 319.674 113.372L316.483 110.431C316.437 110.389 316.372 110.377 316.315 110.4L309.385 113.128C309.302 113.161 309.261 113.254 309.294 113.337L310.762 117.061C310.795 117.144 310.754 117.237 310.671 117.27L284.063 127.741C283.98 127.774 283.887 127.733 283.854 127.651L281.199 120.986C281.166 120.903 281.207 120.809 281.29 120.776L350.626 93.486C350.761 93.433 350.892 93.571 350.832 93.703L349.961 95.618Z" fill="#DB572E"/>
<path opacity="0.3" d="M248.073 124.976C242.481 127.165 239.724 133.472 241.916 139.064C244.109 144.656 250.42 147.413 256.012 145.224C261.605 143.035 264.361 136.728 262.169 131.136C259.976 125.544 253.666 122.787 248.073 124.976ZM254.931 143.28C250.473 145.025 245.441 142.826 243.693 138.369C241.945 133.912 244.144 128.884 248.602 127.139C253.06 125.394 258.09 127.592 259.838 132.049C261.586 136.506 259.389 141.535 254.931 143.28Z" fill="#DB572E"/>
<path opacity="0.1" d="M287.213 150.701C286.436 151.753 285.512 152.696 284.451 153.502L248.525 105.908L248.496 105.869C248.496 105.869 251.661 104.277 252.378 103.805C252.378 103.844 252.398 103.894 252.427 103.952C253.999 107.323 282.239 143.987 287.213 150.701Z" fill="white"/>
<path opacity="0.1" d="M282.023 155.006C281.797 155.114 271.329 158.299 271.329 158.299L259.662 142.847C262.679 139.888 263.81 135.308 262.168 131.13C259.976 125.537 253.666 122.775 248.073 124.967C247.581 125.154 247.119 125.38 246.677 125.635L236.356 111.962C236.356 111.962 245.429 107.637 246.431 107.008C246.696 108.926 282.023 154.603 282.023 155.006Z" fill="white"/>
<path d="M239.188 79.941C238.019 81.331 237.542 83.277 237.936 85.05C238.33 86.823 239.584 88.384 241.232 89.15C242.086 89.547 243.026 89.737 243.87 90.153C244.715 90.569 245.498 91.302 245.588 92.239C245.687 93.274 244.924 94.241 244.996 95.278C245.062 96.228 245.805 96.982 246.555 97.569C247.305 98.156 248.143 98.71 248.556 99.568C248.969 100.426 248.701 101.697 247.782 101.947C247.588 102.244 247.514 102.952 247.761 103.207C248.008 103.461 248.436 103.515 248.738 103.329C250.149 102.461 251.118 100.824 251.129 99.167C251.14 97.51 250.1 95.893 248.588 95.215C248.316 94.664 248.527 93.965 248.755 93.394C249.213 92.249 249.67 91.104 250.128 89.959C250.308 89.509 250.148 88.69 249.841 88.316C249.534 87.942 249.071 87.738 248.626 87.547L245.678 86.283C244.565 85.806 241.263 81.38 245.183 80.088C244.671 78.951 243.786 78.594 242.559 78.37C241.332 78.146 239.991 78.986 239.188 79.941Z" fill="#263238"/>
<path d="M244.538 75.18C244.44 76.344 244.342 77.507 244.244 78.671C245.221 77.067 247.031 73.958 246.969 74.079C246.201 74.496 245.307 74.762 244.538 75.18Z" fill="#263238"/>
<path d="M245.861 77.092C247.227 75.829 248.592 74.566 249.958 73.304C248.904 72.909 247.628 73.203 246.853 74.02C246.876 73.934 246.244 75.874 245.861 77.092Z" fill="#263238"/>
<path d="M237.533 171.7C232.199 178.318 233.974 183.394 226.613 195.111C235.897 201.993 246.076 203.133 258.73 202.15C260.225 199.501 260.981 196.736 262.477 194.086C264.622 196.747 266.344 198.984 268.488 201.645C275.118 200.606 282.995 198.743 288.238 195.364C283.608 190.054 280.733 183.421 277.768 177.566C276.378 174.821 276.96 173.665 273.272 170.065C261.524 170.607 249.873 170.894 238.125 171.436C238.436 171.453 237.223 171.684 237.533 171.7Z" fill="#263238"/>
<path d="M238.995 170.594L238.259 173.683C238.152 173.926 238.439 174.156 238.834 174.134L271.217 172.701C271.527 172.706 271.774 172.522 271.787 172.334L271.959 169.264C271.962 169.058 271.693 168.884 271.354 168.907L239.536 170.312C239.318 170.302 239.112 170.41 238.995 170.594Z" fill="#D61107"/>
<path d="M238.995 170.594L238.259 173.683C238.152 173.926 238.439 174.156 238.834 174.134L271.217 172.701C271.527 172.706 271.774 172.522 271.787 172.334L271.959 169.264C271.962 169.058 271.693 168.884 271.354 168.907L239.536 170.312C239.318 170.302 239.112 170.41 238.995 170.594Z" fill="#D61107"/>
<path d="M246.127 174.138L245.187 174.179C245.008 174.176 244.859 174.099 244.871 173.986L245.124 169.996C245.126 169.883 245.287 169.782 245.475 169.776L246.416 169.725C246.595 169.728 246.744 169.806 246.732 169.928L246.479 173.908C246.468 174.021 246.306 174.132 246.127 174.138Z" fill="#263238"/>
<path d="M269.508 173.13L268.568 173.171C268.389 173.168 268.24 173.09 268.252 172.978L268.505 168.997C268.507 168.875 268.668 168.774 268.847 168.768L269.787 168.727C269.966 168.73 270.115 168.808 270.103 168.92L269.85 172.9C269.848 173.023 269.696 173.124 269.508 173.13Z" fill="#263238"/>
<path d="M250.309 154.719C250.37 155.014 252.885 159.015 254.856 158.738C254.872 158.736 254.889 158.733 254.905 158.731C255.48 158.65 256.053 158.883 256.407 159.343C257.199 160.374 257.677 160.965 258.212 161.642C259.08 162.741 260.587 163.093 261.857 162.503C262.233 162.328 262.605 162.136 262.975 161.94C264.196 161.292 264.819 159.893 264.487 158.551C264.123 157.08 263.557 155.659 262.805 154.344C262.548 153.894 262.253 153.44 261.806 153.18C261.359 152.919 257.02 151.608 255.335 151.661C253.58 151.716 251.915 154.013 250.309 154.719Z" fill="#E8BFBF"/>
<path d="M255.378 151.529C255.378 151.529 228.796 143.48 223.062 148.839C219.691 151.99 221.283 154.965 223.167 156.883C224.569 158.31 227.623 157.959 229.621 157.866L250.56 155.812L255.378 151.529Z" fill="#E8BFBF"/>
<path d="M240.103 147.852C239.959 146.413 238.845 145.218 237.551 144.573C236.257 143.928 234.791 143.737 233.357 143.555C230.017 143.132 226.677 142.708 223.337 142.285C221.641 144.43 220.421 147.376 220.474 150.11C220.527 152.844 221.556 155.549 223.333 157.627C224.931 154.537 227.039 151.356 230.16 149.821C233.282 148.287 236.68 147.232 240.103 147.852Z" fill="#263238"/>
<path opacity="0.1" d="M233.25 99.3C233.22 99.24 233.22 99.21 233.25 99.2C233.46 99.14 233.43 99.18 233.25 99.3Z" fill="white"/>
<path d="M297.459 52.4155L303.912 68.2134L330.241 38.6931C330.473 38.4331 330.205 37.9625 329.951 38.1834L305.269 59.6944L301.464 49.8961L297.459 52.4155Z" fill="#D61107"/>
<path d="M339 52.4892C339 66.5683 327.806 77.9772 314 77.9772C308.699 77.9772 303.791 76.3033 299.749 73.4203L285.071 81.845L294.337 68.218C290.997 63.8981 289.001 58.437 289.001 52.488C289.001 38.4089 300.194 27 314 27C327.806 27.0012 339 38.4112 339 52.4892Z" stroke="#D61107" stroke-width="1.3" stroke-miterlimit="10"/>
<defs>
<filter id="filter0_d_132_708" x="321.223" y="271.005" width="35.562" height="69" filterUnits="userSpaceOnUse" color-interpolation-filters="sRGB">
<feFlood flood-opacity="0" result="BackgroundImageFix"/>
<feColorMatrix in="SourceAlpha" type="matrix" values="0 0 0 0 0 0 0 0 0 0 0 0 0 0 0 0 0 0 127 0" result="hardAlpha"/>
<feOffset dx="1" dy="3"/>
<feGaussianBlur stdDeviation="4"/>
<feComposite in2="hardAlpha" operator="out"/>
<feColorMatrix type="matrix" values="0 0 0 0 0 0 0 0 0 0 0 0 0 0 0 0 0 0 0.25 0"/>
<feBlend mode="normal" in2="BackgroundImageFix" result="effect1_dropShadow_132_708"/>
<feBlend mode="normal" in="SourceGraphic" in2="effect1_dropShadow_132_708" result="shape"/>
</filter>
<filter id="filter1_d_132_708" x="52.1111" y="350.37" width="395.778" height="30.646" filterUnits="userSpaceOnUse" color-interpolation-filters="sRGB">
<feFlood flood-opacity="0" result="BackgroundImageFix"/>
<feColorMatrix in="SourceAlpha" type="matrix" values="0 0 0 0 0 0 0 0 0 0 0 0 0 0 0 0 0 0 127 0" result="hardAlpha"/>
<feOffset dy="4"/>
<feGaussianBlur stdDeviation="2"/>
<feComposite in2="hardAlpha" operator="out"/>
<feColorMatrix type="matrix" values="0 0 0 0 0 0 0 0 0 0 0 0 0 0 0 0 0 0 0.25 0"/>
<feBlend mode="normal" in2="BackgroundImageFix" result="effect1_dropShadow_132_708"/>
<feBlend mode="normal" in="SourceGraphic" in2="effect1_dropShadow_132_708" result="shape"/>
</filter>
</defs>
</svg>
