<svg width="26" height="30" viewBox="0 0 26 30" fill="none" xmlns="http://www.w3.org/2000/svg">
<path fill-rule="evenodd" clip-rule="evenodd" d="M11.8509 0.534234C11.6375 0.21323 11.2108 0 10.7843 0C10.3023 0 9.92908 0.213462 9.66243 0.534234C6.88557 4.37677 0 14.52 0 19.2712C0 25.1965 4.80369 30 10.7843 30C16.7097 30 21.5131 25.1965 21.5131 19.2712C21.5133 14.5198 14.628 4.37677 11.8509 0.534234ZM6.08562 23.5948C5.92558 23.808 5.65893 23.9146 5.39227 23.9146C5.17904 23.9146 4.96558 23.8614 4.75235 23.7014C2.08211 21.4597 3.04211 18.1493 3.04211 17.9893C3.20377 17.5094 3.73731 17.2427 4.21743 17.3494C4.75259 17.5092 5.01715 18.0425 4.85921 18.5235C4.85921 18.6301 4.27085 20.8186 5.979 22.2597C6.35227 22.6338 6.40569 23.2213 6.08562 23.5948Z" fill="#DE1F26"/>
<path fill-rule="evenodd" clip-rule="evenodd" d="M17.1879 1.49493C21.1933 1.49493 24.395 4.69755 24.395 8.64786C24.395 12.5982 21.1933 15.854 17.1879 15.854C13.2376 15.854 10.0359 12.5979 10.0359 8.64786C10.0359 4.69755 13.2376 1.49493 17.1879 1.49493Z" fill="#676767"/>
<path d="M17.1879 0.747498C19.3764 0.747498 21.3515 1.60181 22.7934 3.04261C24.2352 4.48434 25.1436 6.45962 25.1436 8.64812C25.1436 10.8366 24.2352 12.8117 22.7934 14.2527C21.3515 15.6944 19.3764 16.6019 17.1879 16.6019C14.9994 16.6019 13.0241 15.6944 11.5843 14.2527C10.1425 12.8117 9.2873 10.8366 9.2873 8.64812C9.2873 6.45962 10.1425 4.48458 11.5843 3.04261C13.0241 1.60157 14.9994 0.747498 17.1879 0.747498ZM21.78 4.11015C20.6049 2.93577 19.005 2.24173 17.1879 2.24173C15.4261 2.24173 13.826 2.936 12.653 4.11015C11.476 5.28523 10.7845 6.88607 10.7845 8.64788C10.7845 10.4097 11.476 12.064 12.653 13.1856C13.8262 14.3591 15.4261 15.1065 17.1879 15.1065C19.0048 15.1065 20.6049 14.3591 21.78 13.1856C22.9 12.064 23.6487 10.4097 23.6487 8.64788C23.6487 6.88607 22.9 5.28523 21.7266 4.11015H21.78Z" fill="white"/>
<path fill-rule="evenodd" clip-rule="evenodd" d="M14.7346 10.3555L14.5195 10.943C14.4663 11.103 14.3595 11.264 14.3061 11.3706C14.1995 11.4774 14.0397 11.5306 13.933 11.5306C13.7196 11.5306 13.613 11.4774 13.5061 11.3174C13.3995 11.2108 13.2929 11.0498 13.2929 10.8898C13.2929 10.8363 13.3445 10.7831 13.3445 10.6765C13.3445 10.6231 13.3445 10.5697 13.3995 10.5165L14.8415 6.61961C14.9481 6.35203 15.0547 6.13857 15.2129 5.97876C15.3748 5.87215 15.588 5.81873 15.8015 5.81873C16.0147 5.81873 16.1745 5.87215 16.3348 5.97876C16.4948 6.13857 16.6548 6.29884 16.7099 6.51299L18.1498 10.5165C18.1498 10.6233 18.1498 10.6765 18.203 10.73C18.203 10.7831 18.203 10.89 18.203 10.89C18.203 11.1032 18.1498 11.211 18.0432 11.3708C17.9365 11.4776 17.7765 11.5308 17.5633 11.5308C17.4014 11.5308 17.2948 11.4776 17.1881 11.3708C17.0815 11.2642 16.9747 11.1032 16.9231 10.89L16.7615 10.3558H14.7346V10.3555ZM20.9248 10.0886V9.0211H21.9935V8.27341H20.9248V7.2068H20.1782V8.27341H19.1114V9.0211H20.1782V10.0886H20.9248ZM15.0545 9.2355H16.3877L15.7478 7.15384L15.0545 9.2355Z" fill="white"/>
</svg>
