<svg width="44" height="30" viewBox="0 0 44 30" fill="none" xmlns="http://www.w3.org/2000/svg">
<path d="M15.583 19.2563L19.883 11.1639L20.0238 10.8852L20.1646 11.2337L22.7057 18.2087L24.8917 12.9786H25.1737L27.287 19.2563H32.8596C33.5641 18.2803 34.1277 17.3047 34.4799 16.3266C34.9027 15.3485 35.1138 14.3725 35.1138 13.3271C35.1138 11.3032 34.3388 9.56075 33.0683 8.30369C31.7299 7.11888 29.9664 6.34964 27.9914 6.34964C26.8642 6.34964 25.8051 6.56093 24.7506 7.04663C23.7617 7.46494 22.8462 8.16435 22.1417 9.00097L21.9982 9.14273L21.9279 9.00097C21.2235 8.16435 20.3055 7.46525 19.2488 7.04663C18.2624 6.56093 17.2057 6.34964 16.0761 6.34964C14.1014 6.34964 12.2697 7.11858 10.9992 8.30369C9.72841 9.56075 8.95617 11.3032 8.95617 13.3271C8.95617 14.0936 9.09699 14.9302 9.30593 15.6994C9.58789 16.4662 9.94257 17.233 10.4356 18.0019L10.5767 18.2806H10.2948H0.352219V19.2566L15.583 19.2563ZM20.0235 11.652L15.8647 19.4657L15.7944 19.5353H15.7241H0.211088H0V19.3956V18.069V17.9297H0.211088H10.0104C9.58758 17.2327 9.30562 16.5354 9.02397 15.7665C8.81288 15.0024 8.67175 14.1634 8.67175 13.3271C8.67175 11.2337 9.44676 9.42141 10.7875 8.09484C12.1286 6.84021 13.96 6.00146 16.0758 6.00146C17.2054 6.00146 18.3324 6.28044 19.3893 6.76827C20.3782 7.18627 21.2937 7.88355 21.9982 8.65248C22.7732 7.88355 23.6209 7.18627 24.6775 6.76827C25.6636 6.28014 26.8639 6.00146 27.9911 6.00146C30.0363 6.00146 31.9407 6.84051 33.2818 8.09484C34.5499 9.42141 35.3951 11.234 35.3951 13.3271C35.3951 14.3725 35.1837 15.4204 34.7612 16.4662C34.3385 17.4443 33.7727 18.4874 33.0001 19.4657V19.5353H32.9274H27.1459H27.0756L27.005 19.4657L25.0328 13.4664L22.8465 18.6291H22.5648L20.0235 11.652Z" fill="#B3B2B3"/>
<path fill-rule="evenodd" clip-rule="evenodd" d="M43.9997 20.6505H26.019L24.9601 16.1872L22.5649 22.5347L19.883 14.4448L16.4992 20.6505H12.1971C14.1745 22.9531 16.9244 25.3949 20.165 28.1877L21.9991 30L23.9038 28.1877C26.5829 25.8852 28.8398 23.8613 30.6736 21.9771H44V20.6505H43.9997Z" fill="#DE1F26"/>
<path fill-rule="evenodd" clip-rule="evenodd" d="M19.8826 0.699402C19.8145 0.699402 19.8145 0.699402 19.8145 0.699402C19.6737 0.838738 19.3893 1.25706 19.3893 1.46591C19.3893 1.67749 19.6007 1.88422 19.8823 1.88422C20.0959 1.88422 20.3051 1.67749 20.3051 1.46591C20.3054 1.25675 20.0235 0.838738 19.8826 0.699402ZM19.674 1.60554C19.674 1.67748 19.674 1.67748 19.601 1.67748C19.5329 1.53814 19.5329 1.39882 19.5329 1.39882C19.5329 1.39882 19.5329 1.39882 19.601 1.39882C19.601 1.39882 19.601 1.39882 19.601 1.46591C19.601 1.46591 19.6007 1.53814 19.674 1.60554Z" fill="#DE1F26"/>
<path fill-rule="evenodd" clip-rule="evenodd" d="M21.9985 3.14154C21.9985 3.07142 21.9282 3.07141 21.8576 3.07141C21.8576 3.07141 21.7871 3.07142 21.7871 3.14154C21.4352 3.55955 20.5871 4.74436 20.5871 5.30201C20.5871 6.07093 21.1532 6.62889 21.8576 6.62889C22.6323 6.62889 23.196 6.07093 23.196 5.30201C23.196 4.74436 22.3507 3.55955 21.9985 3.14154ZM21.294 5.86178C21.294 5.86178 21.294 5.86178 21.2238 5.86178C21.2238 5.86178 21.2238 5.86178 21.1535 5.86178C20.8715 5.5828 20.9424 5.23461 20.9424 5.16236C21.0127 5.09497 21.0127 5.09497 21.0832 5.09497C21.1538 5.09497 21.2241 5.16236 21.1538 5.2343C21.1538 5.2343 21.0832 5.5133 21.2946 5.72215C21.3643 5.72245 21.3643 5.79226 21.294 5.86178Z" fill="#DE1F26"/>
<path fill-rule="evenodd" clip-rule="evenodd" d="M24.1142 0.0719445C24.1142 -1.49274e-07 24.0436 0 24.0436 0C23.9734 0 23.9734 -1.49274e-07 23.9734 0.0719445C23.6914 0.350616 23.1959 1.18724 23.1959 1.53816C23.1959 2.02387 23.5506 2.44187 24.044 2.44187C24.537 2.44187 24.8917 2.02387 24.8917 1.53816C24.8917 1.18724 24.3256 0.350616 24.1142 0.0719445ZM23.6917 1.88423C23.6215 1.88423 23.6215 1.95617 23.6215 1.95617C23.5509 1.95617 23.5509 1.95617 23.5509 1.88423C23.3395 1.74489 23.4101 1.46592 23.4101 1.46592C23.4101 1.39883 23.4807 1.39883 23.4807 1.39883C23.5509 1.39883 23.5509 1.46592 23.5509 1.46592C23.5509 1.53817 23.4806 1.67749 23.6215 1.81683C23.6917 1.81683 23.6917 1.88423 23.6917 1.88423Z" fill="#DE1F26"/>
<path fill-rule="evenodd" clip-rule="evenodd" d="M10.9992 8.30364C9.7284 9.5607 8.95616 11.3032 8.95616 13.327C8.95616 14.0935 9.09698 14.9302 9.30592 15.6994C9.58788 16.4662 9.94256 17.233 10.4356 18.0019L10.5767 18.2806H10.2948H0.352209V19.2565H15.5833L19.8833 11.1641L20.0241 10.8855L20.1649 11.234L22.706 18.2089L24.892 12.9788H25.174L27.2873 19.2565H32.8599C33.5644 18.2806 34.128 17.3049 34.4802 16.3268C34.903 15.3488 35.1141 14.3728 35.1141 13.3273C35.1141 11.3035 34.3391 9.561 33.0686 8.30394C31.7302 7.11913 29.9667 6.34991 27.9917 6.34991C26.8645 6.34991 25.8054 6.56118 24.7509 7.04688C23.762 7.4652 22.8465 8.16462 22.142 9.00124L21.9985 9.143L21.9282 9.00124C21.2238 8.16462 20.3058 7.4655 19.2491 7.04688C18.2627 6.56118 17.206 6.34991 16.0764 6.34991C14.1014 6.34991 12.2697 7.11883 10.9992 8.30364Z" fill="#E5E5E4"/>
</svg>
