<svg width="12" height="14" viewBox="0 0 12 14" fill="none" xmlns="http://www.w3.org/2000/svg">
<path d="M11 5.90909C11 9.72727 6 13 6 13C6 13 1 9.72727 1 5.90909C1 4.60712 1.52678 3.35847 2.46447 2.43784C3.40215 1.51721 4.67392 1 6 1C7.32608 1 8.59785 1.51721 9.53553 2.43784C10.4732 3.35847 11 4.60712 11 5.90909Z" stroke="#D61107" stroke-linecap="round" stroke-linejoin="round"/>
<path d="M5.99992 7.54546C6.92039 7.54546 7.66659 6.81283 7.66659 5.90909C7.66659 5.00535 6.92039 4.27273 5.99992 4.27273C5.07944 4.27273 4.33325 5.00535 4.33325 5.90909C4.33325 6.81283 5.07944 7.54546 5.99992 7.54546Z" stroke="#D61107" stroke-linecap="round" stroke-linejoin="round"/>
</svg>
